<?xml version="1.0" standalone="no"?>
<!DOCTYPE svg PUBLIC "-//W3C//DTD SVG 1.1//EN" "http://www.w3.org/Graphics/SVG/1.1/DTD/svg11.dtd" >
<svg xmlns="http://www.w3.org/2000/svg" xmlns:xlink="http://www.w3.org/1999/xlink" version="1.1">
<metadata>
Created by FontForge 20170731 at Tue Mar 14 06:51:30 2023
 By Aleksey,,,
Generated by Fontographer 3.5
</metadata>
<defs>
<font id="Munee-Light" horiz-adv-x="0" >
  <font-face 
    font-family="BODUKURU"
    font-weight="400"
    font-style="italic"
    font-stretch="normal"
    units-per-em="2048"
    panose-1="0 0 0 0 0 0 0 0 0 0"
    ascent="1638"
    descent="-410"
    x-height="1069"
    cap-height="2089"
    bbox="-1184 -893 4362 3226"
    underline-thickness="0"
    underline-position="-665"
    slope="-5"
    unicode-range="U+0020-00A0"
  />
<missing-glyph horiz-adv-x="3225" 
d="M3025 0h-2824v3226h2824v-3226zM401 201h2423v2824h-2423v-2824z" />
    <glyph glyph-name=".notdef" horiz-adv-x="3225" 
d="M3025 0h-2824v3226h2824v-3226zM401 201h2423v2824h-2423v-2824z" />
    <glyph glyph-name=".null" 
 />
    <glyph glyph-name="nonmarkingreturn" horiz-adv-x="682" 
 />
    <glyph glyph-name="space" unicode=" " horiz-adv-x="694" 
 />
    <glyph glyph-name="exclam" unicode="!" horiz-adv-x="712" 
d="M147 666q16 32 52 55q40 22 75 29q34 0 68 -17q29 -23 29 -55l2 -27v-10l-2 -23q-2 -20 -29 -63l-57 -41q-20 -14 -66 -14q-43 0 -65 11.5t-29 41.5l-10 33l4 24q6 28 28 56zM381 1571l29 86q7 25 34 63q15 27 43 49l52 29l51 10q24 0 47 -10l35 -29l16 -49l-8 -63
q-12 -81 -53 -162l-88 -190l-105 -222l-100 -268h-25h-35l33 135l25 146l24 215l17 186z" />
    <glyph glyph-name="quotedbl" unicode="&#x22;" horiz-adv-x="872" 
d="M305 1675h-133l-59 338v287h245v-287zM700 1675h-131l-57 338v287h246v-287z" />
    <glyph glyph-name="numbersign" unicode="#" horiz-adv-x="2258" 
d="M2122 330l-109 -256v278v271l-2 272l-12 797l63 139q65 132 84 135l-10 -1368zM1090 1858l-13 -17v90l-55 314l35 77l20 39l25 43l12 -71l4 -60l2 -123l-4 -184l-22 -78q0 -22 -4 -30zM1116 1335l-47 78l-39 -47l-33 -31l-18 -12l-59 18l-39 43l-23 62l-12 65l10 99
l37 100l14 -137l47 -47h68l55 47l27 94l35 -98l30 -47l72 22l47 76l17 145q18 -18 18 -108l-8 -39l-2 -19l-2 -14v-29l-11 -61l-38 -94l-56 -60zM248 88l-203 -127l125 127l72 82l63 66l51 71l58 82l28 90l33 119l14 43q0 20 5 35l8 20l4 21l10 28l10 68l25 -78
q0 -37 12 -59l35 -47l33 -41l43 -37q29 -18 51 -23l70 -10q79 0 161 55q31 22 56 56l18 33l25 51l39 94l47 100q38 -180 114 -256q63 -51 123 -51h37q22 0 58 27l98 49l74 59l-3 578l56 137l49 156l25 -164l10 -162v-127l-2 -106l-2 -105l-31 -133l-25 -86l-90 -197l-22 -37
q-17 -34 -35 -47l-39 -41l-125 -106l-158 -51l-137 63l-72 113l-28 -39l-19 -27l-51 -71l-65 -66l-21 -6l-35 -18l-43 -9q-97 0 -106 21l-66 55l-59 70l-47 123l-12 -58l-23 -73l-14 -48l-41 -45l-60 -71l-37 -21l-26 -24z" />
    <glyph glyph-name="dollar" unicode="$" horiz-adv-x="1523" 
d="M868 758l-43 2l-55 -207l-29 -107l-32 -102h16h45l57 12q38 0 91 35q54 31 91 68t68 96l13 51q0 23 -17 47l-24 27l-41 31l-47 16l-50 18zM651 1243l-28 -59l-9 -29l-4 -39q6 -38 27 -72q26 -33 65 -51l48 -14q24 -6 65 -6l31 96l26 100l54 191l-21 -6l-37 -2l-45 -11
l-39 -6l-49 -22l-43 -31zM391 1032v12q0 24 10 54q6 40 27 61l43 66l66 61l79 62l101 45q30 16 94 32l76 17l63 6l21 47l20 64l29 116q25 0 37 -4l35 4l-11 -53q0 -20 -16 -63l-37 -111h21l12 2l12 -2l55 -10l62 -21l59 -28l27 -15l29 -22l38 -41l25 -54l10 -53
q0 -30 -16 -59l-35 -41q-14 -20 -45 -37l-45 -14q-31 0 -43 4l-39 14q-11 14 -14 35l-2 22l-6 7l8 24q14 38 14 78v12l-8 45q-7 25 -40.5 40t-102.5 26l-58 -201l-61 -205q48 0 123 -16l51 -12l55 -19l80 -43q37 -21 59 -57l17 -23q12 -21 12 -45l6 -37v-16l-6 -27
q0 -40 -33 -94l-73 -108q-32 -35 -105 -86l-123 -64l-47 -12l-86 -21l-129 -14l-24 -108l-25 -111h-45h-41l6 43l25 68l28 108q-118 0 -200 33q-84 38 -138 84q-38 41 -53 117q0 75 47 131l27 26l39 15l41 14l22 4l21 -4q26 0 39 -8l24 -23l2 -26v-17q-3 -37 -18 -61
l-21 -43l-4 -37v-19v-8q0 -16 15 -37q15 -31 59 -45l39 -10l55 -2h29l65 217l37 135l33 86l-147 19q-68 12 -117 43q-50 21 -84 67q-31 54 -31 121z" />
    <glyph glyph-name="percent" unicode="%" horiz-adv-x="2185" 
d="M143 1337q0 187 95 320t274 133q162 0 274 -121q109 -121 109 -344q0 -225 -109 -346q-107 -119 -272 -119q-157 0 -264 119t-107 358zM518 1638q-83 0 -135 -67q-51 -63 -51 -256q0 -307 186 -307q88 0 139.5 77.5t51.5 245.5q0 157 -52 232t-139 75zM698 -63h-180
l965 1853h174zM1280 414q0 186 94 317q95 133 277 133q164 0 274 -119q111 -120 111 -344q0 -221 -111 -344q-111 -120 -274 -120q-155 0 -265 116q-106 121 -106 361zM1657 717q-81 0 -133 -70q-54 -69 -54 -256q0 -169 52 -239q55 -68 135 -68q81 0 135 72q53 65 53 252
q0 162 -51 235.5t-137 73.5z" />
    <glyph glyph-name="ampersand" unicode="&#x26;" 
d="M-270 455l-13 -13l-14 -4l-8 -4l-6 -2l-19 -6l-12 -4l-6 -2l-10 -4l-9 4l9 6l16 4l18 8l7 2l10 4l12 7zM-246 385l8 -4l-8 -2h-8v6h8zM-193 451l5 8l-9 -4zM-150 471l-2 -8zM-72 516l6 -4h-12zM-61 516l-9 -8h-8l-8 4l4 4l6 4h10zM-70 401l-8 -8l-8 -2l-8 -6h-8l-9 -2
l-8 -2v4l8 4l9 4l8 4l10 4l8 2zM23 518l-3 -6l-4 8zM20 526l7 -10l-4 -4l-11 4zM66 393v-8v8zM72 379l-11 6l5 12l-3 9l11 2l10 8l-10 -15v-12zM102 434v-8l-4 -6v18v8l2 23v10v10l2 13v10l4 6l7 6l2 -12l-2 -10v-10l-2 -9l-2 -8v-18zM270 494l-2 8l13 10l10 -8l2 -12l6 10
l8 4h10l7 -10l-9 -9l-10 5l-2 -9l-6 -4l-6 -8l-6 4l2 8l-2 9zM246 481l-8 -2h-9l-8 -2l-22 -2l-17 -4h-10h-12h-10l-7 4l13 4h12l8 2l10 2h11l16 4h31zM-223 479l4 8zM262 442l-4 -8zM281 401v9l-13 -4zM287 401l-6 -16l-9 -8l-14 -4h-12h-13l-8 6l-8 6l2 6l4 -6l8 -4l19 -2
l12 2l10 8l-6 8l-6 9l6 8l15 4l4 -4zM57 457l2 6l-6 2l-8 -6zM401 381l-8 -12l-10 -11l-6 -2l6 17l6 6l4 10l8 8l5 19l4 10l6 6l4 6h10l-2 -10l-10 -14l-8 -17zM369 379l-9 -6l-8 4l-12 2l-12 2l-17 2l-8 2l2 10l12 -6l11 -4h14l-2 18l4 11l8 2v-15v-16l8 -4l9 10l2 15l2 10
l4 14l6 4l8 -2l-10 -18v-8l-4 -13l-4 -10zM213 416l-2 -10l-4 -9l-6 -4l-17 -2l-12 6l-12 9l-10 8l-15 -8l-14 -9l6 19l18 6l17 -8l8 -4l10 -4l13 -5l12 7v18l2 12v8l6 13l6 -4l-2 -17l-4 -12v-10zM-51 432l22 -10h19h20q-9 9 -20 12l-17 10l39 11l25 8l2 8l6 12v21v12
l-4 12l8 9l4 -9v-12v-10l-2 -10v-9v-8l2 -8l13 -4v-12l-7 -4h-10h-12h-14l-27 -5h-10l12 -4l10 -4l15 -6l14 -10h12l4 -4l-6 -2h-49h-25h-22l-12 2l-11 -2h-10h-14l-6 -2h-21l-8 4l4 10l4 -6l12 -2l11 2l2 20v9l4 4l8 -13l4 -16l8 -4l13 4v16v21v12l-2 8l4 11l6 -2l2 -9v-8
v-12v-21v-10zM-295 391l-29 -6l-22 -2l-19 -4l-6 2l-8 8l-10 4h-14l-7 -2l-18 -12l-4 -6l-6 -4l-4 4l10 12q22 16 39 16l10 -4l10 -2l8 -6h9h10l22 4l9 2l8 2h14l6 9l4 8l4 -4v-9l13 2h10l23 3l8 2l-4 10l-4 8l4 8l8 -8l2 -8l2 -8h43l10 4l-4 8v10l8 -6l4 -6l4 -10l-12 -4
l-41 -3l-8 -2l-8 2l-15 -2l-10 -4l-8 -2l-20 -2h-13zM162 440l-6 -6l-9 4l-8 -4l-6 4l-8 4l6 4h14l11 -2zM-174 389l4 -8l-6 -2l-10 2l-9 -4l-10 8l6 4h11h14zM-322 369l5 -4l-7 -7l-8 2l-8 -2l-6 2l-6 7l8 4l8 -2l6 4zM-395 418l-8 -4l-7 4l-8 -4l-8 2l-4 4l4 6h10l15 -4z
M-219 496l6 -9l-4 -8l-4 -4l-2 -8h-8h-13l-2 8l-2 8l-6 -4l8 10l4 -12h13l4 6l2 9zM-186 463l2 -8l-4 -4l-9 -5l-4 9l2 8h13zM268 444l2 -6l-8 -6l-6 6l4 8zM20 494l-10 -5l-18 -8l-25 -10l-6 6l4 4l21 8l28 11zM356 463l4 -6l-8 -4l-20 -9l-25 -10l-4 6l4 4l21 9zM410 481
l6 -2l-8 -4l-15 -8h-8l12 8zM416 459l-6 -8l-4 -5l-13 -4l-8 2l4 11l8 -4l4 8l5 -4l4 8zM143 520l7 -4v-10l-3 -10h-8l-4 -4l-4 -5l4 9l8 8l-6 8zM-410 348l-8 6l-2 6l4 9l8 10l7 4l6 6l-8 -12l-5 -8v-11zM-156 463l-2 8l6 8v8l7 2l6 5l12 10l-10 -17l-8 -8l2 -12l-4 -12z
M-47 319l12 -26l15 -31v62q-17 0 -27 -5zM29 293l16 26l-31 5v-62zM844 1253l-4 -16q0 -19 28 -35l-10 39q4 15 10 21l17 4l33 -9q0 25 -35 25q-26 0 -39 -29zM-958 1233l28 8q17 0 23 -20v-15l-2 -35q18 18 24 54l-8 24l-29 8q-27 0 -36 -24zM2 1352l-2 -168l72 -21l-31 82
zM125 1225l-16 -74l159 98l-73 -8q-23 0 -70 -16zM-213 1153l90 23l94 20v215q-89 -33 -136.5 -106t-47.5 -152zM-82 1083l72 -24l24 20l35 39h-65h-41h-29l-61 -4zM1008 1098l-41 -68q-11 23 -29 37l-55 59q-56 48 -133 156q12 41 38 74l39 67q26 -14 111 -116
q84 -93 104 -131l-14 -43l-6 -13zM199 1108h-78l78 -72l84 -67l-47 71zM-1055 1110l-12 49l104 121l105 129q15 -15 43 -70q25 -57 49 -86l-117 -125l-53 -69l-37 -60l-61 78zM967 897l88 150l71 129l-168 202l-161 185l-58 -129l-37 -70l-51 -76q39 -77 148 -186l65 -74
q35 -35 103 -131zM51 999l-18 -104l53 78l25 51l-27 57zM-995 1341l-158 -186q0 -13 18 -51q11 -33 54 -96q58 -108 100 -125q3 29 135 176q133 153 159 194q6 9 11 17q-27 18 -88 131l-61 125q-36 -18 -170 -185zM-121 1073l-98 31q15 -105 57 -168q35 -66 135 -92l-2 43
l2 57l4 37l-6 61l-47 13zM74 907l-41 -84q137 0 286 88q-23 0 -102 33l-96 31zM-39 737l66 -10q69 0 147 37q110 47 158 119q-145 -92 -258 -92q-38 0 -88 16q-146 44 -207 172q-17 38 -24.5 64.5t-8 37.5t-0.5 37q0 43 23 127q47 146 243 207l-41 6q-104 0 -182 -78
q-89 -95 -104 -215l-4 -55q0 -95 51 -197q59 -123 229 -176zM23 639v-76l157 -8l49 86l86 162q-15 -59 -120 -117q-89 -47 -150 -47h-22zM-342 846l156 -291l159 8v76q-41 0 -84 14l-94 45q-86 48 -137 148zM459 342l-13 -37l-65 -43l53 -14l68 -25l92 -37l-45 117
q10 0 23 5.5t35.5 16t45.5 17.5l-88 29l-90 26zM-465 381l23 -62q207 39 407 39h15l213 -6q114 -9 129 -12q57 -11 75 -16l43 73l35 78q-196 62 -452 62q-302 0 -494 -72l-21 -6zM-582 170q89 47 199 86l-76 37l-37 80q-34 0 -77 -21l-76 -33l57 -14q34 -9 55 -24
q-3 -31 -45 -111zM-176 -14v47q125 64 125 129q-10 78 -68 172h-53l-66 -4l-47 -2l-69 -19l18 -28l17 -25l-152 -61l-156 -68l29 72l33 61l-76 27l-80 24l225 86l-12 37l-10 37q127 50 272 74l-403 704q-34 -21 -166 -196l-105 -140l-61 -86q-49 34 -123 158l-55 98
q-18 35 -25 72q13 32 178 221q156 170 162 207q-20 6 -20 29q0 25 20 45l10 2l19 -2q13 -13 16 -31v-12l371 -631l-2 37q0 123 82 272q48 87 127 138q77 53 192 53l4 30l2 9l-2 12l-14 22q-2 2 -43 95l-16 96l2 35q-37 -69 -43 -121q0 -39 -37 -117q-66 78 -66 152
q0 36 19 76l35 98l18 74q-39 0 -109 -64q-25 -18 -51 -47l-47 -47l-24 -25l-21 -20q-29 -29 -49 -35l-4 39q0 169 129 240q127 71 145 92q-52 22 -102 22q-58 0 -88 -12l-98 -10l-74 8q9 62 135 100l123 23l96 8q-21 46 -135 90l-150 51q34 51 99 51q58 0 121 -32l102 -49
l37 -19q-17 82 -51 162q-31 70 -31 106l6 27q85 0 137 -111q37 -110 72 -145l104 139q46 58 123 58l62 -9q33 -13 47 -36q-56 0 -121 -56q-60 -54 -88 -121l98 21l88 6q97 0 158 -104h-182q-113 0 -166 -80q96 0 248 -49q146 -37 184 -170q-99 0 -172 36q-77 41 -162 41h-14
q13 0 125 -127q65 -74 71 -147q0 -31 -18 -61q-48 45 -66 69l-71 86q-48 66 -64 66l-10 -15l10 -90l4 -73v-27q0 -141 -73 -141l-19 67q-12 46 -12 94q0 94 -43 164q-14 -69 -14 -182l-5 -117l-8 -45l2 -18l2 -47l54 -9q18 0 63 -28l-76 -12l-37 -13l-6 -37l52 -65l55 -70
l110 23l115 22l-61 -90l-56 -90l52 -82l61 -80q23 17 64 117l16 -70l344 641q0 35 35 47q30 -12 30 -34l-12 -35l-10 -6q0 -17 35 -52l51 -65l66 -76l131 -147q47 -52 63 -92l-90 -160l-94 -168l-90 115l-70 90l-186 213l-381 -715l59 -2q19 0 90 -21q66 -14 119 -45
l-29 -65q38 0 117 -33l29 -8q14 0 39 -19l49 -24l-70 -23l-65 -18l32 -82q5 -25 33 -72l-160 60q-64 22 -168 47l39 59l-116 14l-111 11q-72 -104 -78 -168q0 -64 133 -129v-45q-131 -23 -176 -23h-10h-27q-35 0 -59 6q-32 0 -90 15z" />
    <glyph glyph-name="quotesingle" unicode="'" horiz-adv-x="653" 
d="M150 2355l55 -6l43 -18q11 -11 20 -58l13 -61l-15 -109l-24 -90l-45 -110l-23 -39l-27 -43l-8 20l-14 49l-14 54l-15 38l-10 43l-14 84l-6 25v25v26l4 29l16 94zM403 2359q42 0 62 -10l29 -14q18 -12 24 -54l10 -67l-14 -105l-25 -94l-24 -61l-14 -49l-56 -78l-6 16
l-12 49l-23 70l-10 29l-8 34l-19 97v41v59l17 90z" />
    <glyph glyph-name="parenleft" unicode="(" horiz-adv-x="819" 
d="M729 -25h-154q-174 219 -303 531q-122 305 -122 622q0 285 92 547q106 306 333 606h154q-138 -237 -190 -356q-65 -144 -119 -362q-49 -223 -49 -435q0 -588 358 -1153z" />
    <glyph glyph-name="parenright" unicode=")" horiz-adv-x="819" 
d="M246 0h-156q361 576 361 1153q0 208 -54 446q-39 199 -114 347q-27 71 -193 360h156q223 -302 332 -606q94 -269 94 -547q0 -325 -123 -623q-116 -289 -303 -530z" />
    <glyph glyph-name="asterisk" unicode="*" horiz-adv-x="4374" 
d="M901 1036q-20 -80 -43 -106q-21 -41 -70 -56l-40 -28l-27 -25l-55 -119q-8 -42 -35 -59q-23 -23 -74 -29l-53 -14l-23 27l-6 26l-6 6l10 5l45 24l37 23q17 7 51 41l123 206l88 78h-10q6 2 10 6l39 19v20v39l-4 64v30l-8 39l-2 60q0 64 14 147l23 64q7 27 33 53v-358v-60
v-8q0 -35 -17 -115zM653 539l-2 -68q0 -107 49 -141q22 -31 95 -31q126 0 215 115q45 65 80 225l8 113l35 59l-5 -4l19 14h10h14l9 -6l8 -4l14 10h15l14 10l20 19q62 133 117 197q53 87 139 129l-10 4h-20h-15h-14q-43 0 -55 -4l-9 -7l-10 -10l-6 17l6 24v19q27 79 127 79
h21q4 -7 24 -10l92 -14l7 -6v-11l2 -8l8 -6q0 -51 -60 -96l-110 -76q-20 -8 -39 -27q-23 -16 -23 -32q-14 -11 -14 -29l4 -10v-10l14 -19v-14q0 -14 7 -17v-14q0 -21 -11 -39q-9 -18 -39 -39h-10h-14l-80 -14q-45 -17 -102 -84q-6 -5 -64 -178q-35 -104 -61 -160
q-29 -63 -68 -111q-94 -137 -231 -137q-85 0 -127 60q-45 45 -45 151l16 123l18 59l31 60l4 10l11 4zM1073 1511l17 17v-29q-4 -4 -7 -39v-55v-43q0 -348 -59 -389v407q13 64 35 109q4 2 8 11t6 11zM430 512v-12l10 -33l-24 -70l-35 -14q-15 0 -35 20l-4 11h-10q-2 -2 -4 -2
q-10 -10 -21 -29l-39 -39q-25 0 -45 39l-28 31v8l-7 20q0 14 21 54l45 49l14 6l15 -14l14 -25l10 -6l4 6l31 33q6 21 39 30q29 -20 49 -63zM778 1274q0 -23 -28 -70l-23 -14q-45 -35 -65 -55l-80 -64q-24 -24 -68 -24l-20 6h-29q-13 3 -14 4l-21 4h-29l-30 -8l-29 -25
l-31 -31l17 -14l32 -39l21 -63q0 -91 -88 -140l-137 -82l-25 -16q-98 -73 -98 -260v-84v-57l-6 -49l-19 -228l-18 -88l-6 -74l-7 299v56v53v45v43v45v39l15 59l31 119l2 49l16 43q24 85 80 129l53 49l49 33q0 32 6 41q0 21 29 68q19 24 35 74q5 19 35 45q25 42 63 59
q14 9 60 18q13 0 44 -12t48 -12q19 0 39 14l65 45q-23 50 -55 53h-14h-21q-9 -9 -43 -28v45l25 14l18 25q17 22 59 35q20 0 109 -25q53 -27 53 -49zM926 629l6 -25q0 -12 -14 -29l-19 -47l-22 -36l-54 28v17l-10 38q0 11 14 43l31 66h25q7 -10 14 -10h21q0 -29 8 -45z
M823 1479v-9q0 -24 -28 -40l-70 -9l-4 9l-6 6v10l-10 14l10 10v19l6 6l14 18q15 3 15 7h24h14l21 -17q14 -11 14 -24zM1796 997q-27 -91 -49 -116l-21 -19l-16 -14l-35 -23l-37 -24l-28 -29l-15 -29q-34 -70 -39 -84q-10 -43 -40 -59q-18 -18 -68 -35h-39l-16 -4l-19 29
l-6 14l-8 10l20 15l33 24q48 12 88 49l33 52l90 159q22 29 88 74q15 15 41 25v16v8l-6 133v50l-4 49v61q0 80 35 148l28 61v-369v-59v-14l-4 -54q0 -33 -6 -45zM2494 963q-6 -63 -69 -197q-46 -113 -137 -113q-16 0 -43 21q-14 14 -31 14l-19 -12l-30 -23q-29 -36 -84 -49
q-47 0 -74 49q-12 9 -33 49l-49 -43q-6 -6 -41 -6h-53l35 52l39 47l94 108l39 39l6 -14l18 -64q6 -49 60 -55q34 0 92 70l-4 -5v-10l63 92l-10 25l49 -78l35 -29q52 0 70 127q0 124 57 172q16 -16 16 -49l15 -77q0 -15 -11 -41zM1688 1475v-15q0 -15 -17 -32t-26 -19
l-21 -10l-18 -2q-17 0 -24 7t-11 32v10l10 14l4 15l4 4l6 10h15h20h8h21h10q6 -14 19 -14zM1989 1499l24 45v-31v-38v-54v-55q0 -344 -59 -379v410zM2361 1159v-8q-16 -16 -28 -16l-35 -5q-4 4 -10 7.5t-10 5t-5 2.5l-10 6v29l25 20l6 4h24h15h14q14 -6 14 -35v-10z
M2681 1475v-316l-35 -155q-12 -82 -53 -91v414l4 35q7 4 16 24l19 89h49zM4348 1421l10 -35q0 -22 4 -38q0 -204 -168 -390q-167 -215 -442 -344q-309 -157 -629 -157h-18h-45h-29l-10 -4q-70 0 -146 12l-122 16l-52 11h-14q-16 0 -49 -11l-41 -10l-49 21q-15 0 -19 4
l-39 -7q-18 -4 -41 -18q-33 -10 -53 -49q-37 -43 -59 -166l-15 -129l-4 -98v-39v-68v-69v-39v-72v-39l-6 -37q-15 -52 -39 -59l-8 45l-2 39l-4 43v108q0 170 14 310q0 82 13 133q5 32 22 96q2 12 25 86q53 132 172 192l67 29q37 21 66 25l57 -25l129 -35l105 -16
q44 -8 102 -8q85 0 164 12l219 39q80 17 119 27q192 57 352 153q195 111 320 250q143 165 143 311zM4293 481q0 -21 -13 -37q-6 -20 -16 -34l-45 -52l-43 56q-14 20 -14 43q0 21 3.5 32t20.5 41q13 36 53 45l39 -30q15 -12 15 -64z" />
    <glyph glyph-name="plus" unicode="+" horiz-adv-x="1105" 
d="M637 1239l63 195h70h74l-25 -74l-35 -121l-67 -199h205h194l-14 -77l-29 -78h-196h-203q-14 -91 -51 -193l-60 -198h-69h-74l59 198l53 193h-200h-195l25 78l20 77h197h196z" />
    <glyph glyph-name="comma" unicode="," horiz-adv-x="811" 
d="M352 692l-41 6q-12 2 -22 5.5t-14 6t-12 8.5t-9 7q-20 17 -31 33l-14 30q-8 19 -8 46v30l10 60q9 45 45 96l31 49l47 57q41 36 131 93l67 43l93 43q3 -17 14 -31l8 -29l-98 -69q-21 -10 -43 -29l-41 -33l-76 -65l-37 -70q43 27 99 41l28 4q16 0 37.5 -14t38.5 -43l10 -68
l-16 -61l-47 -76l-25 -23l-35 -22q-15 -6 -49.5 -14.5t-40.5 -10.5z" />
    <glyph glyph-name="hyphen" unicode="-" horiz-adv-x="786" 
d="M180 735l49 60h250h254l-57 -60l-41 -59h-252h-246q15 40 43 59z" />
    <glyph glyph-name="period" unicode="." horiz-adv-x="684" 
d="M469 811h-246v246h246v-246z" />
    <glyph glyph-name="slash" unicode="/" horiz-adv-x="1908" 
d="M1716 1778h164l-414 -566l-372 -516l-373 -516l-387 -528h-121h-166l412 561l375 516l239 340l139 180l390 529h114z" />
    <glyph glyph-name="zero" unicode="0" horiz-adv-x="1366" 
d="M1280 1114q0 -305 -65.5 -502t-202.5 -315q-134 -113 -336 -113q-261 0 -426 195q-176 232 -176 735q0 318 65 510q68 198 204 308t333 110q147 0 262 -62q109 -59 190 -174q70 -106 111 -272q41 -161 41 -420zM997 1114q0 419 -96 553q-95 135 -227 135
q-133 0 -215 -110q-41 -67 -78 -222q-25 -177 -25 -356q0 -429 95 -561q94 -131 225 -131q124 0 223 135q98 137 98 557z" />
    <glyph glyph-name="one" unicode="1" horiz-adv-x="1366" 
d="M948 2066v-1828h-276v1343l-74 -55l-90 -53q-105 -64 -270 -132v273q364 171 520 452h190z" />
    <glyph glyph-name="two" unicode="2" horiz-adv-x="1366" 
d="M1268 481v-268h-1223q0 121 25 188q14 43 30 80q28 56 78 119q23 31 39 49q109 128 287 273q274 219 383 364q39 51 69 125q27 59 27 117q0 113 -82 192q-82 82 -221 82q-135 0 -225 -84q-29 -33 -42 -52.5t-24 -55.5q-22 -61 -22 -162l-281 31q0 268 180 424
q160 139 420 139q264 0 420 -150q160 -148 160 -368q0 -114 -46 -221t-149 -222q-92 -105 -336 -311l-125 -106q-69 -59 -123 -113l-57 -70h838z" />
    <glyph glyph-name="three" unicode="3" horiz-adv-x="1366" 
d="M1288 764q0 -238 -178 -410q-179 -170 -446 -170q-240 0 -406 146q-162 146 -186 407l272 37q36 -191 116.5 -271.5t203.5 -80.5q139 0 235 96t96 242q0 133 -88 221q-90 90 -227 90l-74 -6q-46 -9 -112 -29l32 262l68 -4q117 0 221 66q103 68 103 201q0 105 -71 173
t-188 68q-123 0 -192 -69q-62 -62 -100 -248l-277 49q25 135 72.5 228t124.5 155q143 125 366 125q159 0 279 -64q127 -60 198.5 -176.5t71.5 -245.5q0 -110 -69 -227q-33 -58 -127 -123q116 -44 188 -137q94 -125 94 -305z" />
    <glyph glyph-name="four" unicode="4" horiz-adv-x="1366" 
d="M1280 969v-260h-238v-422h-278v422h-762l2 239l815 1112h223v-1091h238zM299 969h465v667z" />
    <glyph glyph-name="five" unicode="5" horiz-adv-x="1366" 
d="M1300 893q0 -249 -147 -434q-179 -226 -487 -226q-246 0 -410 144q-182 155 -182 409l282 21q14 -100 37.5 -159t67.5 -97q93 -80 205 -80q137 0 239 111q105 114 105 290q0 167 -99 269q-93 100 -247 100q-98 0 -172 -45q-69 -41 -132 -125l-254 31l179 958h932v-268
h-709l-76 -379q141 78 289 78q240 0 409 -166q170 -167 170 -432z" />
    <glyph glyph-name="six" unicode="6" horiz-adv-x="1366" 
d="M1286 840q2 -167 -74 -313.5t-212.5 -234.5t-297.5 -83q-280 0 -460 207q-179 209 -179 678q0 519 193 761q175 211 467 211q218 0 360 -124q68 -56 113 -148q45 -83 61 -221l-272 -21l-27 97q-17 59 -53 98q-77 80 -194 80q-93 0 -166 -49q-88 -67 -150 -205
q-32 -100 -41 -137q-14 -66 -14 -166q55 64 143 110q111 60 252 60q232 0 391 -172q160 -174 160 -428zM1004 827q0 164 -91 269q-93 96 -223 96q-129 0 -223 -98q-94 -94 -94 -254q0 -237 166 -344q86 -50 161 -50q122 0 211 103q93 104 93 278z" />
    <glyph glyph-name="seven" unicode="7" horiz-adv-x="1366" 
d="M1288 2062v-211q-173 -179 -340 -475q-154 -278 -252 -604q-38 -134 -57 -231q-27 -153 -27 -279h-280q0 241 80 541q79 301 227 575l70 121l65 107q51 80 137 186h-825v270h1202z" />
    <glyph glyph-name="eight" unicode="8" horiz-adv-x="1366" 
d="M1290 774q0 -237 -170 -401t-442 -164q-268 0 -442 162q-164 170 -164 407q0 85 2 101q2 20 16 63q27 84 72 141q68 92 190 144q-91 48 -141 121q-72 97 -72 235q0 197 146 346q149 137 391 137t391 -143q152 -143 152 -346q0 -128 -72 -229q-44 -65 -139 -121
q122 -52 192 -156q90 -133 90 -297zM936 1577q0 105 -76 178q-69 72 -182 72q-114 0 -186 -72q-72 -69 -72 -166q0 -109 74 -180.5t186 -71.5q113 0 184 74q72 75 72 166zM1008 772q0 142 -95 234q-92 92 -239 92q-141 0 -230.5 -89.5t-89.5 -230.5q0 -80 37 -164
q34 -69 117 -122q82 -46 172 -46q136 0 233 91q95 92 95 235z" />
    <glyph glyph-name="nine" unicode="9" horiz-adv-x="1366" 
d="M1290 1163q0 -197 -20 -307q-18 -147 -56 -242q-73 -206 -227 -318t-358 -112q-222 0 -359 122t-168 374l265 22q25 -150 91.5 -215t176.5 -65q77 0 152 43t118 110q23 36 78 199q33 135 33 256l8 -45l-20 -18q-48 -38 -123 -86q-119 -70 -258 -70q-224 0 -387 166
q-162 165 -162 440q0 273 164 449t417 176q88 0 172 -23q84 -22 158 -73q143 -94 223 -273q82 -177 82 -510zM991 1427q0 170 -92 273q-89 102 -219 102q-136 0 -229 -106q-95 -109 -95 -285q0 -153 90 -254q90 -96 230 -96q130 0 223 96q92 100 92 270z" />
    <glyph glyph-name="colon" unicode=":" horiz-adv-x="684" 
d="M467 1200h-246v248h246v-248zM467 172h-246v246h246v-246z" />
    <glyph glyph-name="semicolon" unicode=";" horiz-adv-x="344" 
d="M109 846q46 0 79 -33q35 -27 35 -78q0 -46 -29 -78.5t-81 -38.5q-45 0 -80 32.5t-35 78.5t31.5 81.5t79.5 35.5zM119 1165q48 0 80 -32q34 -27 34 -78q0 -50 -32 -82q-23 -29 -78 -35q-47 0 -81 33t-34 78q0 50 31 83t80 33z" />
    <glyph glyph-name="less" unicode="&#x3c;" horiz-adv-x="1916" 
d="M244 750l26 100l791 303l387 150l395 149q0 -21 -10 -51l-16 -49l-25 -109l-629 -239l-643 -250q7 -4 20 -11t36.5 -20t41.5 -23q58 -32 78 -45l127 -75l183 -111q195 -118 481 -274l-35 -101l-29 -102l-604 323l-608 328z" />
    <glyph glyph-name="equal" unicode="=" horiz-adv-x="1228" 
d="M606 588h-469l10 30l9 41l26 70h467h467l-14 -70l-29 -71h-467zM266 1012l19 71h469h467l-19 -71l-20 -70h-469h-467z" />
    <glyph glyph-name="greater" unicode="&#x3e;" horiz-adv-x="2433" 
d="M1053 983l-478 268q0 37 25 105l12 49l6 29l13 26l303 -153l307 -162l600 -320l-31 -98l-26 -109l-264 -102l-263 -102l-260 -107l-796 -311l32 100l33 101l635 262l627 252l-178 98z" />
    <glyph glyph-name="question" unicode="?" horiz-adv-x="1028" 
d="M971 1212l-76 -30l-55 -6q-14 2 -24 7t-16 8.5t-12 16t-8 18.5t-8.5 27.5t-9.5 32.5l2 98q0 54 -53 95l-52 28l-22 6l-39 11q-67 -6 -94 -41q-55 -79 -66 -180l-4 -29q0 -87 37 -180l70 -119l63 -119q23 -54 23 -108t-13 -86q-38 -144 -110 -181l-8 64l-7 41
q-4 25 -12 51q-21 71 -67 123l-136 145q-60 60 -106 164q-45 105 -45 207l2 74l18 65q50 202 226 297q128 70 221 70q39 0 69 -10q103 -25 180.5 -97t145.5 -190l33 -109l6 -49q0 -3 -1 -22t-4 -29t-15 -28.5t-33 -35.5zM496 303q129 0 129 -139t-129 -139q-131 0 -131 139
t131 139z" />
    <glyph glyph-name="at" unicode="@" horiz-adv-x="1671" 
d="M594 856l22 -4l43 8q28 6 74 49l41 37l45 49l49 60l43 63l101 158q45 60 59 110l10 52l-2 16q0 22 -30 43l-33 4l-29 -2q-42 0 -92 -33q-109 -59 -221 -235l-25 -41l-33 -51l-28 -56l-33 -59l-14 -53l-4 -51l14 -39q7 -13 43 -25zM700 1745l97 41l77 22l82 19l121 6h29
q52 -2 137 -29l47 -18q29 -7 60 -31l53 -39l43 -43q36 -44 55 -90q27 -58 31 -117l2 -55l2 -25q0 -30 -4 -38q0 -63 -47 -140q-23 -62 -80 -127l-111 -120l-118 -89q-37 -21 -62 -28l-61 -29q-40 -10 -107 -24q-44 0 -84 30q-25 14 -41 84l-49 -41l-59 -28l-107 -27l-28 -2
q-33 0 -64 8q-30 12 -59 41q-21 12 -39 64l-10 61l4 37q0 11 10 53l24 68l33 65l47 72q61 83 113 135l108 86l50 27l45 22l53 17q21 8 45 8l43 4l41 -4q29 0 63 -19q24 -7 43 -26q10 -10 19 -37l29 22l18 29h72h65l-6 -18l-18 -31l-43 -68l-60 -84l-65 -96l-66 -100l-57 -94
l-47 -93l-33 -75l39 -19q24 0 47 10q30 0 68 21l69 41l78 53l70 70l61 82l45 92q21 40 35 117l6 63l-4 37q0 29 -4 41q0 18 -21 45l-45 72l-61 57l-37 20l-45 21l-96 27l-72 10l-35 2h-63l-41 -10l-68 -11l-47 -14l-53 -16l-53 -29q-51 -19 -105 -57l-98 -84l-43 -43
l-43 -54l-31 -45l-41 -69l-26 -62l-31 -92q-17 -63 -17 -123l5 -53q5 -37 10.5 -58t21 -55.5t48.5 -70t85 -76.5q34 -21 93 -45q45 -20 87 -29.5t113 -9.5h39l84 6q22 3 60 10q6 2 21.5 8t21.5 7q104 36 182 91t162 154h45h41q-8 -32 -62 -86l-90 -86l-115 -75l-139 -68
l-147 -43l-127 -10h-27q-172 0 -303 82q-81 62 -133 125q-44 67 -57 149l-11 94l6 76q13 101 45 178l41 86l54 80q54 77 123 146q86 86 165 139z" />
    <glyph glyph-name="A" unicode="A" 
d="M610 1651q76 24 123 49q42 19 80 41q31 14 158 90q73 40 151 106l127 99l19 12l45 12q67 0 96 -69l12 -45q0 -28 -24 -66l-74 -70l-53 -43l-64 -45l-116 -80l-111 -67l-109 -62q-187 -96 -266 -110l-24 -2q-39 0 -68 29l-25 32q-19 36 -24 60q0 66 43 90q57 29 104 39z
M580 2111q69 22 122 50q42 19 80 41q31 14 158 90q76 42 152 106l127 99l18 12l45 12q66 0 96 -70l13 -45q0 -26 -25 -65l-74 -70l-53 -43l-63 -45l-117 -80l-111 -67l-108 -62q-186 -95 -267 -110l-24 -2q-40 0 -68 28l-24 33q-21 40 -25 59q0 67 43 91q53 27 105 38z
M14 12l-6 -2z" />
    <glyph glyph-name="B" unicode="B" horiz-adv-x="2025" 
d="M1927 973l-2 -49q0 -56 -121 -213q-27 -27 -69 -52l-86 -53q-42 -4 -80 -16q-31 -3 -80 -21h-375h-67h-56h-47h-39h-33h-26h-35q-9 0 -31 2t-28 2h-54l-34 9q-37 0 -58 6l-41 6l-69 -70q-6 -8 -16 -17.5t-17.5 -15t-24 -18t-24.5 -18.5l-90 -58l-33 -12l-45 -4
q-52 0 -99 35q-19 16 -26 36.5t-12 61.5l10 25l18 34q13 13 74 52l37 24l10 4q-36 17 -70 43q-38 44 -38 105q0 81 49 147q46 72 129 107q50 32 108 32q16 0 53 -16q13 -5 32 -10t30.5 -8.5t27.5 -14t31 -26.5q21 -18 41 -51q22 -46 25 -74l2 -51q0 -15 -10 -25l159 -14
l152 -9l332 9q68 0 110 10q116 21 181 74q17 8 36 37l37 61l23 74q36 11 59 26h51q30 0 60 -18q26 0 47 -37q9 -20 12 -51zM1116 1229q43 -13 70.5 -53.5t27.5 -88.5q0 -24 -6 -45q-13 -44 -52 -71t-87 -27q-21 0 -45 8q-44 13 -72 53.5t-28 88.5q0 22 6 43q13 43 53.5 70.5
t87.5 27.5q24 0 45 -6z" />
    <glyph glyph-name="C" unicode="C" horiz-adv-x="1828" 
d="M1712 1006l-2 -45q0 -26 -27 -72q-29 -53 -84 -125l-38 -31q-81 -48 -103 -65q-13 -7 -69 -17q-57 -8 -76 -14q-64 0 -342 4l-414 12h-31q-28 0 -55 6l-31 -36l-32 -29q-3 -3 -48 -39l-36 -27l-70 -49l-70 -14q-46 0 -94 31l-27 43l-10 49l10 24l15 29l53 37
q13 9 25.5 17.5t17.5 11.5t8 6l-30 22l-25 19q-37 43 -37 94q0 28 10 70q8 24 37 65q47 68 117 98q21 15 94 15q47 0 94 -15q22 0 35 -8l39 -29l37 -49l20 -39l2 -30l3 -45l-11 -21l92 -12h54l135 -8l299 8l104 8q112 22 162 66q22 16 35 34l31 54l22 69l55 25h46
q21 0 30 -6l25 -8q20 0 39 -31q13 -20 16 -53zM860 1087q28 -6 47 -33t19 -59q0 -16 -2 -20q-15 -64 -88 -64q-17 0 -23 2q-68 15 -68 91q-9 21 18.5 53t76.5 33q14 0 20 -3zM1077 1087q39 0 69 -21.5t30 -55.5q0 -45 -22 -77t-56 -32q-46 0 -78.5 24t-32.5 64q0 39 25 68.5
t65 29.5zM950 1280q43 0 74 -25t31 -63q0 -43 -24.5 -74t-61.5 -31q-46 0 -76.5 24.5t-30.5 64.5q0 43 25 73.5t63 30.5z" />
    <glyph glyph-name="D" unicode="D" horiz-adv-x="1298" 
d="M1171 256l5 -37l-29 -59l-25 -23q-24 -15 -49 -18h-141h-227l-111 4q-44 0 -113 10l-139 17q-45 9 -84 59q-13 29 -33 49l29 59q0 33 27 54q24 36 112 92l146 94l96 72l-23 -15l-92 13q-71 0 -151 22q-41 6 -62 27q-11 11 -20 41q0 50 8 69q5 23 22 48q19 6 23 10l18 18
l64 45l43 29q30 20 49 39l16 29l31 32l12 13l66 45l66 -45l34 -31q12 -24 19 -51q0 -59 -72 -131l-12 -13l35 -8q119 -18 180 -55q31 -11 47 -72l8 -49l-43 -57l-67 -58l-129 -110l-95 -72l8 6l-26 4q15 -3 18 -6q67 0 99 -12h57l313 -4l54 -19l24 -30z" />
    <glyph glyph-name="E" unicode="E" 
d="M1313 1964l-8 -49q-6 -31 -35 -47l-37 -21l-37 -4l-55 -4l-109 4l-102 12q-30 7 -56 21q-67 42 -102 80q-35 47 -35 121q0 35 15 69q27 52 57 86l84 101l41 43q17 17 41 37l106 77q45 26 66 29l33 4q31 -3 45 -12q18 -3 37 -14q13 -17 24 -66v-45q-7 -20 -31 -41
q-3 -7 -34 -25l-37 -22l-62 -29l-30 -24q-33 -21 -74 -62l-57 -67l-13 -25l-10 -23l43 -18l141 -27q37 0 68 17q23 0 43 4q51 0 72 -41q8 -8 8 -39zM723 1905q-9 -21 -23 -35l-49 -27l-45 -8l-49 -2l-111 10l-106 12q-21 4 -47 15q-73 38 -104 84t-31 114q0 66 67 160
l92 109l89 76l45 30q33 22 36 23q19 11 21 16q45 27 67 33l27 4l45 -14q14 -3 31 -13q21 -38 24 -67v-27q0 -23 -4 -35l-6 -6l-18 -18l-33 -25l-47 -24q-1 0 -51 -29l-47 -39q-79 -51 -117 -106l-23 -50q54 -33 185 -49q25 0 63 15q25 0 45 4q41 0 56 -15l4 -4l3.5 -3.5
t3 -3.5t3 -4t2.5 -4.5t3 -6t2 -7t2 -9.5t2.5 -11t2.5 -14q0 -11 -10 -49zM10 6l4 -6l-4 -4l-6 4z" />
    <glyph glyph-name="F" unicode="F" horiz-adv-x="1425" 
d="M1348 860l4 -51v-37q0 -23 -4 -43q0 -18 -17 -49l-16 -27l-27 -35l-35 -36l-28 -19l-47 -22l-88 -21q-111 0 -230 45q-89 36 -160 97l-71 -58l96 -72q59 -65 59 -137l-2 -24l-6 -27q0 -44 -37 -96q-61 -83 -186 -109l-109 -16l-137 -8l-57 4q-36 0 -57 12q-20 7 -35 31
l-13 55q0 38 7 66q9 20 55 41l88 10l41 -2l33 -2l90 6q30 0 73 16l29 21l4 8l-4 4l-35 29l-106 65q-35 35 -47 78l-6 49l59 82q15 26 76 66l53 41l141 98l148 80q10 4 22 10.5t27.5 17t24.5 15.5l65 28q28 8 64 13q51 7 55 8l55 -8q24 -3 49 -23q22 -4 35 -14q17 -7 29 -25
l30 -37l23 -32q15 -25 25 -66zM1130 741l21 45l-12 21q-23 36 -56 39l-18 6q-27 0 -47 -14l-51 -29l-70 -37l39 -20l70 -29q56 -21 90 -21q8 6 12 13zM885 1364q41 7 74.5 -15t44.5 -63q2 -6 2 -22q0 -36 -21.5 -64t-56.5 -35q-8 -2 -23 -2q-34 0 -61.5 20t-34.5 42
q-4 21 -4 39q0 37 22.5 66.5t57.5 33.5z" />
    <glyph glyph-name="G" unicode="G" horiz-adv-x="1316" 
d="M750 995q-39 -45 -99 -45q-39 0 -76 29q-45 36 -45 98q0 41 27 76q37 43 98 43q31 0 45 -4.5t33 -22.5q43 -37 43 -98q0 -32 -4 -43.5t-22 -32.5zM1206 887l11 -84l2 -29l-2 -61q0 -22 -13 -66l-16 -102q-8 -48 -45 -123l-47 -90q-6 -18 -25 -37q-12 -22 -31 -31.5
t-71 -9.5q-11 0 -43 16l-33 23l-8 18v25q0 54 20 80l45 86q28 36 49 129q14 64 17 84q0 8 2 14l-2 41l-58 -47l-45 -35l-143 -110l-102 -72l-148 -90l-63 -35l-99 -62l-141 -75q-13 -6 -37 -17.5t-41 -19t-24 -10.5l-37 -2q-37 0 -55.5 15.5t-26.5 49.5l-16 33l-3 22
q-3 17 7 50l6 36q0 25 35 37l81 17q41 7 64 20l84 37q151 77 270 160q61 30 123 78l60 43l51 38l137 107l86 72l63 59q62 -6 97 -47q20 -15 41 -66z" />
    <glyph glyph-name="H" unicode="H" horiz-adv-x="1474" 
d="M1214 250q-12 -46 -49 -70q-28 -22 -84 -28q-30 0 -39 6q-42 9 -71 49q-10 13 -15 26q-12 27 -12 58l6 53q10 29 47 57q12 9 27 15q27 12 57 12q31 0 54 -10q21 -3 57 -45q27 -38 27 -82q0 -26 -5 -41zM1366 909q-16 -32 -31 -41l-28 -22l-33 -39l-60 -45l-294 -209
l-246 -150l-62 -38l-145 -82l-172 -84l-62 -27l-36 -14l-15 -6l-67 -9q-38 4 -60 10.5t-30 11.5t-28 27.5t-34 36.5q5 5 10 19l2 33v28q0 11 -4 23q9 41 29 51l27 23q10 6 34 10l29 -2q20 0 35 -6l39 8l41 6l192 86l189 92l110 66q18 11 38.5 24.5t21.5 14.5q22 13 57 43
q112 71 180 126l99 82l104 97l35 24l37 8l30 -4l50 -24l26 -39q14 -44 15 -47q0 -32 -23 -62z" />
    <glyph glyph-name="I" unicode="I" 
d="M324 -322l104 43l190 105q45 23 60 35l67 45l129 96l27 2q47 0 84 -57l12 -45q0 -32 -26 -52l-41 -38l-115 -91q-14 -9 -32.5 -20t-27.5 -16.5t-18.5 -13t-15.5 -13.5l-182 -100q-156 -73 -203 -84l-55 -6q-26 0 -45 16q-12 12 -27 41l-10 49q9 78 63 98q12 6 62 6z
M266 -690l74 10l102 43q37 14 193 105q4 2 12.5 5t13 5.5t13.5 8t18 13.5l68 47l96 74l39 14l43 17l35 -25l26 -41l13 -43q0 -30 -27 -51l-41 -41l-113 -88q-76 -40 -96 -63l-182 -101q-146 -71 -201 -84l-57 -8q-20 0 -45 19l-27 40l-10 50q-9 67 53 94zM20 2089l5 -4
l-5 -6l-6 6z" />
    <glyph glyph-name="J" unicode="J" horiz-adv-x="1449" 
d="M797 1378q71 -38 71 -116q0 -27 -12 -54q-34 -69 -113 -69q-30 0 -57 12q-72 38 -72 115q0 24 13 53q38 72 116 72q25 0 54 -13zM276 117q-25 -18 -73 -39q-69 -29 -99 -29q-48 0 -77 36.5t-29 92.5q0 100 82 123q70 21 129 45l24 10q102 51 179 99q113 69 153 106l47 43
l-12 37q0 36 25 72l22 20l29 19q35 12 61 12q22 0 45 -10q21 -6 43 -31l113 -18q56 0 102 12q12 2 19 3t13.5 2t11.5 3.5t7.5 3t7 5.5t6 6t8 9t9.5 11q-4 38 -98 59q-69 12 -104 33q-31 25 -31 84q0 25 16 68l74 38l82 23l78 22l67 31l35 12q26 -3 35 -4.5t25.5 -11
t31.5 -27.5q6 -6 29 -47l10 -30q0 -23 -29 -52l-59 -32l-24 -11q46 -36 59 -67l10 -45q7 -18 10 -49l-8 -33q0 -32 -12 -53l-27 -39l-26 -31l-39 -31q-25 -16 -91 -33.5t-137 -17.5l-165 4l-226 -170l-184 -135l-86 -59q-46 -31 -62 -39z" />
    <glyph glyph-name="K" unicode="K" horiz-adv-x="1474" 
d="M797 1012q-12 -46 -49 -70q-30 -23 -84 -29q-28 0 -39 7q-43 9 -72 49q-8 10 -14 26q-13 29 -13 58l6 53q9 28 48 57q13 10 26 15q27 12 58 12q30 0 53 -10q21 -3 57 -45q27 -38 27 -82q0 -29 -4 -41zM1366 909q-16 -32 -31 -41l-28 -22l-33 -39l-60 -45l-294 -209
l-246 -150l-62 -38l-145 -82l-172 -84l-62 -27l-36 -14l-15 -6l-67 -9q-38 4 -60 10.5t-30 11.5t-28 27.5t-34 36.5q5 5 10 19l2 33v28q0 11 -4 23q9 41 29 51l27 23q10 6 34 10l29 -2q20 0 35 -6l39 8l41 6l192 86l189 92l110 66q18 11 38.5 24.5t21.5 14.5q22 13 57 43
q112 71 180 126l99 82l104 97l35 24l37 8l30 -4l50 -24l26 -39q14 -44 15 -47q0 -32 -23 -62z" />
    <glyph glyph-name="L" unicode="L" horiz-adv-x="1298" 
d="M256 391l268 146l76 49q75 50 102 71l9 2l-49 3q-14 0 -64 18q-22 3 -59 37l-37 53q-23 23 -23 61q-2 23 -2 70l19 70q10 28 53 71l20 25l41 35l60 6q10 1 21.5 -5t24.5 -17t17 -13l23 -18l8 -17q14 -22 14 -32q0 -32 -20 -52l-56 -65q3 -35 29 -45l41 -15q9 -4 55 -4h33
l37 15l31 18l45 31l53 33l35 22q17 0 37 -10q12 -2 32 -14q49 -13 58 -97l-4 -26l-15 -23q-31 -40 -47 -51l-121 -90q-30 -26 -38 -31l-48 -33l-69 -47l-150 -96l-225 -145l-201 -117q-46 -21 -57 -27l-63 -31q-18 -8 -62 -14q-35 0 -64.5 21.5t-35.5 50.5q-15 56 -15 102
q0 19 11 41l24 35l43 -6q42 -6 58 -6q19 0 94 35z" />
    <glyph glyph-name="M" unicode="M" horiz-adv-x="1808" 
d="M1712 1006l-2 -45q0 -26 -27 -72q-29 -53 -84 -125l-38 -31q-81 -48 -103 -65q-13 -7 -69 -17q-57 -8 -76 -14q-64 0 -342 4l-414 12h-31q-28 0 -55 6l-31 -36l-32 -29q-3 -3 -48 -39l-36 -27l-70 -49l-70 -14q-46 0 -94 31l-27 43l-10 49l10 24l15 29l53 37
q13 9 25.5 17.5t17.5 11.5t8 6l-30 22l-25 19q-37 43 -37 94q0 28 10 70q8 24 37 65q47 68 117 98q21 15 94 15q47 0 94 -15q22 0 35 -8l39 -29l37 -49l20 -39l2 -30l3 -45l-11 -21l92 -12h54l135 -8l299 8l104 8q112 22 162 66q22 16 35 34l31 54l22 69l55 25h46
q21 0 30 -6l25 -8q20 0 39 -31q13 -20 16 -53zM1061 451l-6 -43q-30 -76 -117 -76q-22 0 -41 8q-82 27 -82 117q0 15 8 39q30 79 119 79q25 0 41 -8q78 -28 78 -116z" />
    <glyph glyph-name="N" unicode="N" horiz-adv-x="1593" 
d="M1489 883l-43 -68q-37 -46 -57 -65l-54 -39l-80 -33l-47 -10l-78 -9q-47 0 -71.5 4.5t-65.5 22.5l-57 25l-123 -21l-139 21l-23 -13q-35 -17 -63 -45l-74 -65l-70 -80l-22 -33l-21 -43q-15 -27 -18 -61q0 -36 33 -47q97 -28 102 -29q47 -14 74 -21q130 -14 190 -14l125 2
l99 19q100 17 176 43l63 20q35 5 78 21q19 0 49 -50q21 -35 21 -69v-7.5v-8.5t-0.5 -9t-1 -10.5t-2 -11t-4 -12t-5.5 -12t-7.5 -13.5t-10 -13t-12.5 -14q-20 -20 -72 -41l-123 -31l-139 -18l-172 -16q-25 0 -45 -4h-49l-78 2q-39 0 -80 8q-34 0 -76 10q-14 1 -47 8l-47 17
q-40 6 -86 26l-80 37q-37 18 -70 51l-26 29l-21 33q-20 39 -20 100q0 62 28 160q36 98 164 223l107 92l-4 6q-15 27 -21 80q0 51 25.5 89t93.5 73q37 16 74 16l55 -6q34 -15 57 -35q10 -8 27 -36l14 -70l39 -2q28 0 37 6q18 4 21 12l28 31l35 47l27 39l96 21l88 -23l20 -41
q10 -20 13 -55q0 -33 -41 -86l39 -6l49 6q24 9 37 22l41 47l26 43l35 50q6 0 38.5 16.5t47.5 11.5l60 -35l20 -26q12 -28 16 -62q0 -29 -22 -71z" />
    <glyph glyph-name="O" unicode="O" 
d="M1430 2159l-25 -27l-31 -41q-1 -2 -7 -12.5t-9.5 -15.5t-11 -12t-15.5 -11q-9 -15 -49 -33l-41 -20l-29 -2q-30 0 -53 10q-41 18 -41 73q0 26 8 50l19 24l74 76l51 68l24 38q-57 0 -116 -26q-47 -11 -121 -53l-58 -31l-81 -55l-66 -45l-33 -31q-31 -19 -69 -60l-48 -45
l-61 -77l86 16l76 20l59 25q6 3 30 10.5t28 9.5l36 5q21 -12 39 -39q14 -22 17 -52q0 -32 -21 -59q-26 -26 -71 -49l-56 -23q-35 -6 -45 -16l-102 -23l-68 -4l-86 4q-63 15 -94 46q-37 37 -37 100l2 29q5 39 17 67q8 31 38 72q30 39 35 43l80 92l98 76l82 59l136 82l133 70
l155 45q48 3 99 16q65 0 127 -33q42 -23 63 -75q12 -37 12 -68q0 -38 -12 -59q-7 -28 -10 -35t-21 -37z" />
    <glyph glyph-name="P" unicode="P" horiz-adv-x="1337" 
d="M1147 219q0 -53 -31 -87t-90 -34q-42 0 -82 29q-37 34 -37 82q0 53 31.5 89t83.5 36q53 0 89 -31.5t36 -83.5zM-20 201l18 32l41 -2q15 0 57 15l39 12l141 55q123 47 142 56q86 39 172 92l254 155l-56 37l-38 39q-15 15 -15 41q0 66 123 113l-37 22q-10 2 -45 33
q-31 31 -31 60q0 7 5 22q0 10 10 27l22 26l39 29l31 12l29 6l51 25l55 35l35 24l20 9l15 8l37 4l45 -19l18 -14l14 -14l13 -13q9 -9 18 -47l10 -45l-8 -24q-20 -33 -86 -68q68 -44 68 -94q0 -12 -2 -14l-21 -54l-43 -41l-39 -20l25 -31l10 -18l4 -35q0 -23 -4 -35
q0 -16 -10 -33q-20 -35 -39 -43l-57 -47l-105 -65q-52 -36 -131 -84l-139 -82l-172 -92l-178 -93q-13 -4 -72 -30l-63 -33q-18 -5 -48 -9t-34 -3q-67 12 -88 47q-10 38 -11 39q-12 27 -12 53q0 30 23 74z" />
    <glyph glyph-name="Q" unicode="Q" horiz-adv-x="1474" 
d="M1264 1239q0 -64 -58 -113q-40 -30 -86 -30q-61 0 -112 57q-9 12 -15 27q-12 27 -12 59q0 66 53 113q36 26 86 26q66 0 113 -53q31 -39 31 -86zM920 1110q0 -61 -58 -113q-42 -28 -86 -28q-63 0 -112 55q-27 40 -27 86q0 68 53 115q36 26 86 26q67 0 113 -55
q31 -39 31 -86zM1348 991l12 -41q0 -57 -16.5 -83t-53.5 -48l-41 -20l-55 -11l-35 -10q-23 -7 -100 -41q-37 -15 -101 -61l9 -4l30 -41l33 -41l51 -109l15 -73v-23l-4 -33q-21 -145 -209 -219q-84 -33 -291 -51l-109 -8l-63 -2q-110 0 -174 22q-74 27 -74 107q0 124 90 135
l45 -6l-10 16l-4 -10h49l129 -2h57l64 -4h55q34 0 62 4l127 47l12 41q0 18 -41 53l-78 80q-43 49 -43 119q0 67 41 123q49 60 203 151l112 58l48 18l124 41l64 -12l39 -29q20 -13 31 -33zM23 20l-9 -4z" />
    <glyph glyph-name="R" unicode="R" horiz-adv-x="1474" 
d="M1317 1059l33 -35q0 -65 -25 -90l-74 -45l-61 -31q-30 -10 -86 -45l-94 -55l-6 -8l16 2l-27 14h15l100 -16l86 -21q92 -24 92 -84q0 -19 -22 -55l-37 -58l-62 5l-86 6l-129 26l-98 23l-68 -64q-46 -38 -100 -79q-101 -73 -115 -82l-129 -86q-72 -50 -143 -86l-98 -50
l-97 -32l-32 -4q-60 0 -84 24q-29 23 -35 72l-8 61q0 137 90 137q35 0 78 -32l14 8l57 22l101 43l22 13l49 24q68 35 101 58l133 98l26 22l-16 15q-33 26 -33 67q0 50 2 56q4 10 18 25.5t25 23.5q30 24 58 24q21 0 37 -8l79 -22l47 41q7 3 15 6.5t10.5 4.5t7.5 4t9 6.5
l12 10.5l35 23q20 20 47 35l69 41l60 41l37 20l47 23q16 8 49 8l26 -6q22 0 35 -13q2 -1 27 -26zM737 1262q48 -5 80.5 -39t38.5 -105v-20q-9 -59 -57 -92q-35 -27 -82 -27q-1 0 -11 -0.5t-14 0t-14.5 2t-18.5 5.5t-18 10t-20.5 16t-20.5 24q-27 34 -27 82q0 5 2 22t3 27
q5 36 53 68.5t106 26.5z" />
    <glyph glyph-name="S" unicode="S" horiz-adv-x="1484" 
d="M1436 926q-3 -4 -8 -13.5t-7 -13.5q-9 -26 -75 -80q-61 -47 -105 -63q-125 -47 -233 -47q-58 0 -123 18q-19 6 -23 2l-43 -45l-76 -68q-59 -52 -120 -96l-134 -94q-110 -74 -153 -96q-40 -25 -68 -39q-58 -28 -93 -40t-52 -13.5t-19 -1.5q-35 0 -77 63q-8 10 -11 20
q-10 27 -10 52q0 42 33 86q23 26 59 26q23 0 27 -4q137 39 170 62l121 65q106 60 207 148q18 14 75 75q-63 57 -63 123q0 26 22 62l15 28q24 24 71 39l39 6q54 0 103 -49l55 -82q2 -5 31.5 -12.5t52.5 -7.5q90 0 174 70l35 36q19 26 27 31q17 14 38 14h29l43 -10
q42 -11 55 -35l17 -32q6 -24 6 -37q0 -23 -12 -47z" />
    <glyph glyph-name="T" unicode="T" horiz-adv-x="1533" 
d="M678 821l4 21l-4 12l-6 4q-7 3 -45 8l-19 -2l-14 -8l-35 -20l-22 -31l-15 -29l-2 -22l10 -25l7 -4l22 -4l16 6l21 14l39 31l24 25zM1114 866l-33 -4l-39 -20l-32 -23q-12 -8 -23 -18q-30 -15 -57 -45l-58 -49l7 -7l57 15l82 22l57 23q3 1 8.5 3t8 2.5t6.5 2t6 2.5t5 3
t5 3.5t4 4t4 5.5q17 13 29 35l-6 25q-9 23 -31 20zM1229 84q-14 -27 -53.5 -42t-143.5 -34l-221 -18h-90h-33h-26h-23q-93 0 -154 10q-145 18 -215 88l-28 35l-21 43l-10 37q-7 44 -8 47q0 107 121 237l69 72q-20 13 -31 27l-28 37q-27 59 -27 114q0 62 15 111
q25 98 137 164q80 51 188 51h64q38 0 112 -45l41 -31l23 21l57 32q21 21 45 27l88 29l19 4h20q43 0 74 -8q31 -6 38.5 -9t35.5 -22q13 -3 41 -25q16 -12 34 -47q12 -12 25.5 -40t17.5 -56l2 -16l2 -74q0 -45 -16 -72q-20 -66 -137 -147l-98 -45l-111 -29l-96 -14l-86 -4
l-121 -5l-59 2l-78 -67q-91 -79 -117 -129l-2 -47q36 -23 76 -35l67 -4l94 -2l103 6l108 10q33 4 64.5 9.5t52 10t25.5 5.5l57 14l57 14q24 7 56 -21.5t32 -74.5q0 -40 -28 -94z" />
    <glyph glyph-name="U" unicode="U" 
d="M27 0l-7 8zM1096 2066q10 2 51 23l78 45q40 21 57 41l35 35q13 13 18 26l-10 5l-39 24q-7 5 -28 10.5t-37 5.5l-31 5l-94 -2q-105 0 -105 112q0 47 29 94q29 19 96 25q38 0 62 -4q53 0 75 -8l62 -13q34 -9 41 -16l45 -20l45 -29q7 -2 22 -21l33 -43q37 -40 37 -96l-6 -61
l-12 -27l-19 -31l-22 -32l-45 -54l-45 -41l-52 -32l-67 -48l-99 -57l-47 -20q-4 -1 -55 -29l-25 -6l-36 -4q-42 0 -78 22q-31 31 -31 64q0 17 1.5 30t5.5 23t6 14.5t7.5 13t6.5 9.5q3 18 67 39q70 23 103 28zM514 2075q13 2 51 22l78 45q40 21 57 41l35 35q14 14 19 27
l-11 4l-38 24q-7 5 -28.5 11t-37.5 6l-31 4l-94 -2q-104 0 -104 112q0 50 28 95q27 18 97 24q37 0 61 -4q54 0 76 -8l61 -12q32 -8 41 -17l45 -20l45 -29q10 -3 23 -20l33 -43q36 -39 36 -97l-6 -61l-12 -27l-18 -31l-23 -32l-45 -54l-45 -40l-51 -33l-68 -47l-98 -58
l-47 -20q-6 -2 -56 -29l-24 -6l-37 -4q-42 0 -78 22q-31 31 -31 64q0 17 1.5 30t5.5 23t6 14.5t7.5 13t6.5 9.5q3 18 68 39q77 25 102 29z" />
    <glyph glyph-name="V" unicode="V" horiz-adv-x="1376" 
d="M856 737q39 -3 78 23q43 27 53 43q21 15 21 33q0 23 -21 32l-37 17h-45l-74 -33l-18 -29q-21 -31 -18 -41q27 -45 61 -45zM1270 811q-14 -46 -19 -53l-63 -82l-29 -27l-29 -24l-65 -47l-86 -54l-66 -37l-67 -41l-94 -57l-146 -86l-80 -47l-159 -80l-56 -20
q-83 -47 -131 -47q-84 0 -102 79l-12 50q0 40 16 69q11 35 90 35q25 0 35 10l88 25q28 2 59 18l97 47l94 45q59 27 98 54l57 34l-32 17q-50 44 -66 74q-6 13 -24 125q0 77 36 127q19 29 95 92q37 29 102 53t119 24q96 0 141 -18q54 -17 64 -25q40 -7 106 -73l19 -31
q18 -40 18 -80q0 -30 -8 -49zM922 1335q49 -34 49 -96q0 -33 -21 -63q-35 -50 -96 -50q-33 0 -63 21q-50 35 -50 96q0 34 21 64q34 49 96 49q34 0 64 -21z" />
    <glyph glyph-name="W" unicode="W" horiz-adv-x="1316" 
d="M1206 887l11 -84l2 -29l-2 -61q0 -22 -13 -66l-16 -102q-8 -48 -45 -123l-47 -90q-6 -18 -25 -37q-12 -22 -31 -31.5t-71 -9.5q-11 0 -43 16l-33 23l-8 18v25q0 54 20 80l45 86q28 36 49 129q14 64 17 84q0 8 2 14l-2 41l-58 -47l-45 -35l-143 -110l-102 -72l-148 -90
l-63 -35l-99 -62l-141 -75q-13 -6 -37 -17.5t-41 -19t-24 -10.5l-37 -2q-37 0 -55.5 15.5t-26.5 49.5l-16 33l-3 22q-3 17 7 50l6 36q0 25 35 37l81 17q41 7 64 20l84 37q151 77 270 160q61 30 123 78l60 43l51 38l137 107l86 72l63 59q62 -6 97 -47q20 -15 41 -66zM764 184
q-39 -45 -98 -45q-39 0 -76 29q-45 39 -45 98q0 40 28 76q37 43 99 43q31 0 43 -4.5t33 -22.5q43 -37 43 -98q0 -31 -4.5 -43t-22.5 -33z" />
    <glyph glyph-name="X" unicode="X" horiz-adv-x="1503" 
d="M1415 821l6 -51q0 -54 -6 -72l-12 -59l-25 -37q-30 -45 -63 -78l-45 -28l-45 -19l-43 -14l-54 -10q-159 0 -315 84l-111 75l-86 -67l46 -31q122 -87 122 -205l-6 -76q0 -53 -67 -120q-67 -64 -181 -84l-114 -17l-82 -10h-74l-86 6q-57 0 -84 53l-8 58l6 61q13 37 62 51
l92 11l61 -4l29 -2l74 8q70 0 102 16l22 19l23 20l-8 4l-41 27l-119 76q-24 27 -49 94l-2 20q0 19 -4 31l88 113l45 38l76 56l153 104l60 37l100 59q100 54 166 75.5t123 21.5q40 0 61 -8q22 0 60 -23q16 -5 32 -18l35 -35l33 -37q10 -10 27 -45q7 -9 26 -68zM1196 760
q0 11 -31 51q-15 13 -43 16l-20 9q-33 0 -60 -15l-49 -30l-82 -43l45 -25q92 -45 177 -55l32 30q31 28 31 62z" />
    <glyph glyph-name="Y" unicode="Y" horiz-adv-x="1425" 
d="M1348 860l4 -51v-37q0 -23 -4 -43q0 -18 -17 -49l-16 -27l-27 -35l-35 -36l-28 -19l-47 -22l-88 -21q-111 0 -230 45q-89 36 -160 97l-71 -58l96 -72q59 -65 59 -137l-2 -24l-6 -27q0 -44 -37 -96q-61 -83 -186 -109l-109 -16l-137 -8l-57 4q-36 0 -57 12q-20 7 -35 31
l-13 55q0 38 7 66q9 20 55 41l88 10l41 -2l33 -2l90 6q30 0 73 16l29 21l4 8l-4 4l-35 29l-106 65q-35 35 -47 78l-6 49l59 82q15 26 76 66l53 41l141 98l148 80q10 4 22 10.5t27.5 17t24.5 15.5l65 28q28 8 64 13q51 7 55 8l55 -8q24 -3 49 -23q22 -4 35 -14q17 -7 29 -25
l30 -37l23 -32q15 -25 25 -66zM1130 741l21 45l-12 21q-23 36 -56 39l-18 6q-27 0 -47 -14l-51 -29l-70 -37l39 -20l70 -29q56 -21 90 -21q8 6 12 13zM1049 360q41 7 74 -14.5t44 -62.5q2 -6 2 -23q0 -36 -21 -63.5t-56 -34.5q-8 -2 -23 -2q-34 0 -61.5 19.5t-34.5 41.5
q-4 21 -4 39q0 37 22.5 66.5t57.5 33.5z" />
    <glyph glyph-name="Z" unicode="Z" horiz-adv-x="1495" 
d="M713 1356l432 -162l-195 -74l-190 27l-256 -164l-41 41zM1376 848l8 -53v-41q0 -26 -6 -41q0 -32 -16 -51l-19 -31q-8 -19 -26 -37l-35 -37q-27 -21 -82 -43l-94 -22q-128 0 -244 49q-117 51 -164 98l-75 -59l100 -76q33 -33 43 -66q18 -41 18 -80l-8 -53q0 -44 -39 -100
q-58 -88 -196 -115l-113 -16l-74 -11h-71l-60 3q-58 0 -98 47l-12 59v32t3 24t9.5 24t19 16.5t31.5 16.5l94 10l45 -2l33 -2l94 6q35 0 78 14l31 25l4 8l-4 4l-37 31l-111 67l-34 43l-15 41q0 29 -10 52l84 108l43 37l74 51l147 105l154 90l76 37l73 32q67 23 123 23
q38 0 53 -6q26 -3 60 -27q13 -2 33.5 -14t35.5 -33l29 -31l25 -43q3 -3 12 -30zM1151 737l18 47l-12 19q-21 43 -55 43l-23 6q-24 0 -49 -14l-55 -29l-70 -39l41 -22q107 -52 168 -52l10 9q14 15 27 32z" />
    <glyph glyph-name="bracketleft" unicode="[" horiz-adv-x="1228" 
d="M563 2449l154 514l203 -2l196 2l-14 -55l-19 -59q-53 0 -79 -8q-31 -3 -62 -25q-15 -11 -55 -76l-25 -57l-26 -70l-52 -180l-51 -180l-102 -344l-103 -348l-102 -344l-12 -72l2 -19q4 -35 22 -59l51 -31l76 -4l-14 -59l-21 -60h-211h-206l149 512l152 512z" />
    <glyph glyph-name="backslash" unicode="\" horiz-adv-x="741" 
d="M201 2347l-95 432h115h115l92 -432l92 -432l45 -217q15 -92 23 -113l26 -106l95 -430h-105h-104l-105 430l-98 436z" />
    <glyph glyph-name="bracketright" unicode="]" horiz-adv-x="1165" 
d="M696 2900l13 59h200h201l-154 -516l-149 -512l-152 -514l-149 -510h-201h-199l19 64l14 53q53 0 115 20q14 2 25.5 11.5t29 35t21.5 29.5l16 35l19 57l104 353l106 360l105 359l104 358l19 72l6 51l-2 35l-12 16q-8 11 -21 14l-29 6l-32 3l-35 8z" />
    <glyph glyph-name="underscore" unicode="_" horiz-adv-x="1523" 
d="M176 475v174h1241v-174h-1241z" />
    <glyph glyph-name="a" unicode="a" 
d="M14 12l-6 -2zM610 2101q76 24 123 49q42 19 80 41q31 14 158 90q70 38 151 107l127 98l19 13l45 12q66 0 96 -70l12 -45q0 -28 -24 -65l-74 -70l-53 -43l-64 -45l-116 -80l-111 -68l-109 -61q-190 -97 -266 -111l-24 -2q-39 0 -68 29l-25 33q-19 36 -24 59q0 66 43 90
q57 29 104 39z" />
    <glyph glyph-name="b" unicode="b" horiz-adv-x="1474" 
d="M950 592l43 12l39 12l35 15l27 16q30 10 53 39l22 23l19 26q4 16 4 21l-4 20q-12 29 -35 39h-20q-7 10 -52 -16q-27 -16 -28 -17l-29 -22l-104 -96q-6 -2 -48 -50l-32 -34h57q32 0 53 12zM1389 676q-15 -51 -29 -76q-27 -47 -84 -92l-70 -51l-49 -29l-194 -68l-191 -30
h-137l-74 4l-86 12q-28 3 -80 27q-42 17 -53 35q-35 28 -70 69q-11 19 -24 53l-12 70v55q0 35 8 68q24 106 141 188q32 19 47 25q26 13 37 18t46 13t83 12l33 2l33 -2q36 6 122 -41l21 -8l31 -19q100 80 118 88l64 23l65 20l48 5l55 -5q42 0 80 -32q13 0 45 -23l24 -26
l19 -25q17 -17 32 -55.5t15 -92.5l-2 -55q0 -27 -12 -57zM506 725l-37 -49l-6 -29q0 -19 18 -37l45 -8q47 20 76 49l16 27l19 35q-8 16 -13 22t-15.5 12t-30.5 11q-57 -9 -72 -33z" />
    <glyph glyph-name="c" unicode="c" horiz-adv-x="1593" 
d="M1767 1448q0 -47 -45 -92l-272 -160l-256 -149l51 -43q37 -40 53 -82q13 -29 27 -99q2 -6 2 -30q0 -33 -8 -60q-9 -55 -43 -104q-27 -37 -35 -43l-41 -43q-78 -60 -192 -60q-117 0 -238 54q-9 3 -30 10.5t-31.5 11.5t-26 11.5t-27.5 15.5q-28 13 -92 57l-94 -70l68 -47
l49 -43q65 -77 65 -155l-4 -45q0 -35 -20 -74q-22 -48 -82 -86q-71 -41 -144 -62l-61 -12q-34 0 -72 -12q-29 -3 -55 -10l-74 -2h-30q-19 0 -64 10q-43 6 -61 41l-11 30q-8 16 -8 50l8 45q10 24 52 53l71 8l37 -4l66 -4l84 6q47 10 98 31q19 3 25 24l-3 9q-13 19 -20 24
l-35 23l-55 32q-31 14 -39 25l-47 51q-24 40 -31 66l10 33q10 32 23 49l61 63q50 53 123 101l162 116l170 99l123 71q45 23 182 115l361 225l229 133q17 8 37 11q23 0 59 -25q51 -34 51 -88zM1085 801q0 29 -20 49q-30 35 -84 35q-20 0 -47 -21q-15 -3 -51 -24l-58 -29
l-47 -27l56 -26q111 -60 184 -60l22 7l27 24q14 14 14 33t4 39z" />
    <glyph glyph-name="d" unicode="d" horiz-adv-x="1449" 
d="M276 117q-25 -18 -73 -39q-69 -29 -99 -29q-48 0 -77 36.5t-29 92.5q0 100 82 123q70 21 129 45l24 10q102 51 179 99q113 69 153 106l47 43l-12 37q0 36 25 72l22 20l29 19q35 12 61 12q22 0 45 -10q21 -6 43 -31l113 -18q56 0 102 12q12 2 19 3t13.5 2t11.5 3.5t7.5 3
t7 5.5t6 6t8 9t9.5 11q-4 38 -98 59q-69 12 -104 33q-31 25 -31 84q0 25 16 68l74 38l82 23l78 22l67 31l35 12q26 -3 35 -4.5t25.5 -11t31.5 -27.5q6 -6 29 -47l10 -30q0 -23 -29 -52l-59 -32l-24 -11q46 -36 59 -67l10 -45q7 -18 10 -49l-8 -33q0 -32 -12 -53l-27 -39
l-26 -31l-39 -31q-25 -16 -91 -33.5t-137 -17.5l-165 4l-226 -170l-184 -135l-86 -59q-46 -31 -62 -39z" />
    <glyph glyph-name="e" unicode="e" 
d="M1184 1892q0 -23 -21 -41l-49 -24q-34 -12 -102 -12l-54 2q-169 14 -221 38q-73 37 -106 85.5t-33 119.5q0 64 74 164l88 111q34 41 84 78l110 73q40 27 68 33l33 4q22 0 30.5 -0.5t22 -6.5t25.5 -19q32 -19 32 -72v-37q-3 -31 -35 -53l-22 -13l-49 -26q-32 -17 -66 -43
q-36 -22 -45 -31q-69 -52 -121 -119l-24 -49q8 -13 47 -22l76 -17l71 -8q35 0 72 12q13 3 14 4h13h24q46 0 64 -41q10 -7 10 -38q0 -22 -10 -52zM14 12l-6 -2z" />
    <glyph glyph-name="f" unicode="f" horiz-adv-x="1337" 
d="M-20 201l18 32l41 -2q15 0 57 15l39 12l141 55q123 47 142 56q86 39 172 92l254 155l-56 37l-38 39q-15 15 -15 41q0 66 123 113l-37 22q-10 2 -45 33q-31 31 -31 60q0 7 5 22q0 10 10 27l22 26l39 29l31 12l29 6l51 25l55 35l35 24l20 9l15 8l37 4l45 -19l18 -14l14 -14
l13 -13q9 -9 18 -47l10 -45l-8 -24q-20 -33 -86 -68q68 -44 68 -94q0 -12 -2 -14l-21 -54l-43 -41l-39 -20l25 -31l10 -18l4 -35q0 -23 -4 -35q0 -16 -10 -33q-20 -35 -39 -43l-57 -47l-105 -65q-52 -36 -131 -84l-139 -82l-172 -92l-178 -93q-13 -4 -72 -30l-63 -33
q-18 -5 -48 -9t-34 -3q-67 12 -88 47q-10 38 -11 39q-12 27 -12 53q0 30 23 74z" />
    <glyph glyph-name="g" unicode="g" horiz-adv-x="1593" 
d="M14 758l-4 6zM14 758l-4 6zM14 758l-4 6zM354 369l35 2q29 0 51 -11q21 0 27 -2q15 -8 27 -10l36 -4l82 2l47 -2l76 2l72 12q31 0 61 9q30 3 64 30l10 23q0 14 4 26q0 19 -41 54l-78 80q-43 49 -43 118q0 67 41 123q50 62 203 152l113 57l47 19l125 41l63 -13l39 -28
q20 -13 31 -33l12 -41q0 -57 -16.5 -83t-52.5 -48l-41 -21l-56 -10l-35 -10q-23 -7 -100 -41q-31 -13 -100 -62l8 -4l31 -41l32 -41l52 -108l14 -74v-22l-4 -33q-21 -145 -209 -219q-87 -34 -291 -52l-108 -8l-64 -2l-90 6q-3 1 -28 6t-48.5 17t-54.5 39q-18 30 -18 69
q0 38 16 70q11 21 21 32t38 34z" />
    <glyph glyph-name="h" unicode="h" horiz-adv-x="1533" 
d="M913 553l-82 -51l-157 -99l-62 -38l-145 -82l-172 -84l-62 -27l-36 -14l-15 -6l-67 -9q-38 4 -60 10.5t-30 11.5t-28 27.5t-34 36.5q5 5 10 19l2 33v28q0 11 -4 23q9 41 29 51l27 23q10 6 34 10l29 -2q20 0 35 -6l39 8l41 6l192 86l189 92l110 66q18 11 38.5 24.5
t21.5 14.5q22 13 57 43q112 71 180 126l99 82l104 97l35 24l37 8l30 -4l45 -26l48 -31q21 -12 24 -29q0 -32 -37 -96q-74 -81 -319 -250q-68 -47 -146 -96z" />
    <glyph glyph-name="i" unicode="i" 
d="M324 -322l104 43l190 105q45 23 60 35l67 45l129 96l27 2q47 0 84 -57l12 -45q0 -32 -26 -52l-41 -38l-115 -91q-14 -9 -32.5 -20t-27.5 -16.5t-18.5 -13t-15.5 -13.5l-182 -100q-156 -73 -203 -84l-55 -6q-26 0 -45 16q-12 12 -27 41l-10 49q9 78 63 98q12 6 62 6z
M14 -8l-6 -2z" />
    <glyph glyph-name="j" unicode="j" horiz-adv-x="1396" 
d="M913 721l35 2q48 0 94 22l5 13l-19 16l-53 35l-94 53q-14 0 -41 56l-2 28v25l10 41l57 28l76 15l66 14l59 27q16 10 51 18l37 -10l35 -14q36 -23 61 -74q4 -20 4 -23q0 -34 -49 -71l-14 -11l-39 -16l22 -21l19 -34q25 -42 29 -103q0 -23 -13 -86q-20 -32 -35 -47l-20 -16
q-83 -62 -256 -62q-59 0 -129 4q-20 2 -125 23l-104 -53l-60 -78q-15 -21 -18 -49q6 -50 84 -68q79 -31 237 -31q44 0 174 37q97 27 179 43q23 0 49 -26q20 -26 20 -70q0 -49 -39 -88q-46 -52 -147 -76l-133 -24q-104 -17 -113 -17h-22q-37 0 -80 6q-50 0 -150 19l-72 16
q-36 12 -75 29q-62 18 -97 53q-31 41 -63 103l-8 90l2 57l10 31l21 47l26 49l29 25l110 100l35 20l8 43q9 34 41 66l52 43l32 2q48 0 76 -14l64 -25q24 -18 24 -51l6 -35l39 -4l41 -2h51z" />
    <glyph glyph-name="k" unicode="k" horiz-adv-x="1253" 
d="M1184 997l4 -36q0 -34 -6 -43q0 -12 -23 -35q-10 -22 -55 -62l-64 -59l-98 -78l-104 -80l-103 -74l-143 -90l-123 -67l-76 -29q-24 -8 -57 -12l-49 12l-29 2l-35 51l-10 47q0 31 6 49.5t25 43.5l43 88l30 65l17 70l12 102l6 68q0 87 45 123q27 18 90 24l45 -4
q32 0 52 -31.5t20 -99.5q0 -73 -12 -127q-6 -45 -23 -100q-7 -34 -26 -72l-6 -16l20 37q50 11 215 157l72 68l55 59l35 39l37 33l37 24l28 21q15 6 43 6q75 0 105 -74z" />
    <glyph glyph-name="l" unicode="l" horiz-adv-x="1474" 
d="M1374 846l-8 -47l-23 -41l-49 -45l-245 -160l-189 -123l-186 -113l-187 -112l-118 -68l-115 -61l-111 -62q-90 -43 -139 -43q-52 0 -92 49q-4 10 -10 35.5t-8 32.5l-3 47q0 32 19.5 71t48.5 50l86 -27l107 37l98 45l172 92l121 66l254 156l65 37q32 16 74 49l-53 -2
l-256 -4q-62 0 -90 22q-43 30 -43 86q0 40 18 64q10 29 49 49q14 5 64 10l65 10q15 0 27 4l31 11q21 12 36 30l41 41q12 0 35 45l27 45q19 13 57 13q22 0 68 -17q45 -15 65 -63q0 -10 -8 -43l-22 -66l-11 -10l-20 -23h102h164l45 -14q35 -6 47 -53z" />
    <glyph glyph-name="m" unicode="m" horiz-adv-x="1265" 
d="M1182 872q0 -31 -4 -47q0 -12 -15 -39l-33 -49l-47 -53l-141 -117l-147 -108l-105 -64l-135 -84l-102 -51q-22 -17 -144 -72l-26 -14l-99 -47l-24 -8l-66 -13q-50 0 -71 15q-29 16 -43 59l-17 70q0 63 41 90q11 8 62 8l73 10l123 48l90 38l47 23q10 3 41 25l133 81
q26 11 33.5 15.5t32.5 23.5l76 52l69 45l29 20l72 55l45 35q20 11 20 27h-20q-15 0 -23 4l-63 2l-72 -4l-125 -14l-72 -19l-67 -8h-45q-39 0 -68 29l-26 36l10 52l2 34q0 10 8.5 20.5t17.5 17t26.5 17.5t23.5 15l35 14l40 11l93 12l90 8l110 8l113 -8q16 6 25 0l77 -24
q26 -7 70 -43q72 -60 72 -134z" />
    <glyph glyph-name="n" unicode="n" horiz-adv-x="1769" 
d="M1708 969l-2 -27q-29 -72 -74 -129q-32 -40 -67 -68q-64 -50 -102 -65.5t-99 -15.5h-45q-31 0 -70 20l-71 41l-48 -14q-18 -9 -53 -9h-37q-26 0 -47 7l-45 -60q-43 -46 -117 -112l-90 -74l-114 -92q-116 -90 -238 -154l-170 -82q-65 -21 -133 -33q-41 0 -67.5 17.5
t-32.5 48.5l-9 65v27q0 58 23 88q17 23 70 29l67 -4l19 4l73 29q43 14 74 34q83 38 160 88q79 50 151 107q86 65 150 141l-27 25l-37 51q-12 24 -12 57q0 28 23 82q29 43 59 64q41 24 86 24q36 0 55 -8q27 -4 50 -22q29 -13 38 -37q16 -26 25 -64q40 -6 86 37q30 27 66 88
q37 12 75 12l29 -2q96 -15 96 -88q0 -30 -12 -51q-7 -25 -39 -57q15 0 53 14q18 7 45 35l50 68l24 32l29 31l22 18q47 0 88 -20q72 -35 72 -96z" />
    <glyph glyph-name="o" unicode="o" 
d="M23 -4l-9 -4zM1106 2126l-51 -68q20 -17 51 -22q20 0 53 -2t60 -2q41 0 71 12q29 16 82 16q5 0 15 -0.5t13.5 -1t10.5 -3t9 -7t6.5 -12.5t6 -20.5t3.5 -30t4 -41.5q0 -71 -76 -105q-64 -24 -131 -24l-80 6q-22 2 -56 2t-50 2t-45 14t-64 37q-58 52 -78 131l-22 -16
l-50 -33q-14 -20 -55 -47l-57 -35l-72 -31q-55 -16 -78 -26l-57 -11q-44 0 -86 31q-29 37 -29 74q0 34 -6 49l-2 29l37 43q18 18 37 22l51 -2l29 4l39 13l34 14l31 16q176 102 182 137l-10 3l-49 22l-41 10l-72 8q-40 0 -90 9q-40 0 -82 28q-26 26 -32 80q0 32 24 78
q27 27 109 27h61q32 0 60 -4q36 0 65 -13l62 -16l94 -43q23 -14 59 -66q28 -41 41 -75l33 30l67 58l99 73q96 52 133 60q55 0 82 -35l16 -33q8 -8 8 -35q0 -53 -45 -92l-78 -43q-99 -63 -194 -143z" />
    <glyph glyph-name="p" unicode="p" horiz-adv-x="1337" 
d="M1147 219q0 -53 -31 -87t-90 -34q-42 0 -82 29q-37 34 -37 82q0 53 31.5 89t83.5 36q53 0 89 -31.5t36 -83.5zM-20 201l18 32l41 -2q15 0 57 15l39 12l141 55q123 47 142 56q86 39 172 92l254 155l-56 37l-38 39q-15 15 -15 41q0 66 123 113l-37 22q-10 2 -45 33
q-31 31 -31 60q0 7 5 22q0 10 10 27l22 26l39 29l31 12l29 6l51 25l55 35l35 24l20 9l15 8l37 4l45 -19l18 -14l14 -14l13 -13q9 -9 18 -47l10 -45l-8 -24q-20 -33 -86 -68q68 -44 68 -94q0 -12 -2 -14l-21 -54l-43 -41l-39 -20l25 -31l10 -18l4 -35q0 -23 -4 -35
q0 -16 -10 -33q-20 -35 -39 -43l-57 -47l-105 -65q-52 -36 -131 -84l-139 -82l-172 -92l-178 -93q-13 -4 -72 -30l-63 -33q-18 -5 -48 -9t-34 -3q-67 12 -88 47q-10 38 -11 39q-12 27 -12 53q0 30 23 74z" />
    <glyph glyph-name="q" unicode="q" 
d="M1286 2337l14 -88q0 -13 5 -23v-12q0 -15 -25 -88q-12 -44 -33 -74q-2 -3 -5.5 -10t-5.5 -10t-6 -8.5t-8.5 -10.5t-11.5 -10l-30 -41q-17 -12 -27 -27q-89 -71 -203 -98l-43 -6h-41l-39 4q-38 0 -96 25l-61 38q-47 31 -62 64q-37 74 -37 149q0 70 21 121q26 67 55 107
l49 53l39 35l121 67l68 13l61 6l88 -6q11 0 35.5 -6.5t28.5 -6.5q53 -26 88.5 -62t60.5 -95zM12 12l8 -12l-8 2v10zM1100 2241q-3 25 -17 43l-30 24l-27 10l-41 4l-47 -8l-37 -16l-57 -37l-27 -25l-24 -34l-13 -23l-12 -33l2 -53q4 -15 21 -39q18 -18 57 -24q64 0 106 14
l27 14l39 33l47 49l10 27l10 22q10 17 13 52z" />
    <glyph glyph-name="r" unicode="r" horiz-adv-x="1454" 
d="M1104 813l-96 -43l100 -20l86 -21q92 -24 92 -84q0 -19 -22 -55l-37 -58l-62 5l-86 6l-129 26l-98 23l-68 -64q-46 -38 -100 -79q-101 -73 -115 -82l-129 -86q-72 -50 -143 -86l-98 -50l-97 -32l-32 -4q-60 0 -84 24q-29 23 -35 72l-8 61q0 137 90 137q35 0 78 -32l14 8
l57 22l101 43l22 13l49 24q68 35 101 58l100 67l59 53l-16 15l-29 31l-12 34q0 68 49 105q24 18 70 24l47 -8l61 -20l50 37l86 59q20 20 47 35l69 41l60 41l37 20l47 23q16 8 49 8l26 -6q22 0 35 -13q2 -1 27 -26l33 -35q0 -65 -25 -90l-74 -45l-61 -31q-30 -10 -86 -45z
" />
    <glyph glyph-name="s" unicode="s" horiz-adv-x="2025" 
d="M1927 973l-2 -49q0 -56 -121 -213q-27 -27 -69 -52l-86 -53q-42 -4 -80 -16q-31 -3 -80 -21h-375h-67h-56h-47h-39h-33h-26h-35q-9 0 -31 2t-28 2h-54l-34 9q-37 0 -58 6l-41 6l-69 -70q-6 -8 -16 -17.5t-17.5 -15t-24 -18t-24.5 -18.5l-90 -58l-33 -12l-45 -4
q-52 0 -99 35q-19 16 -26 36.5t-12 61.5l10 25l18 34q13 13 74 52l37 24l10 4q-36 17 -70 43q-38 44 -38 105q0 81 49 147q46 72 129 107q20 14 102 14q54 0 100 -14q46 -9 80 -43q21 -18 41 -51q22 -46 25 -74l2 -51q0 -15 -10 -25l159 -14l152 -9l332 9q68 0 110 10
q116 21 181 74q17 8 36 37l37 61l23 74q36 11 59 26h51q30 0 60 -18q26 0 47 -37q9 -20 12 -51z" />
    <glyph glyph-name="t" unicode="t" horiz-adv-x="1355" 
d="M1264 852l6 -51l-4 -74q0 -32 -21 -59l-16 -27l-23 -31q-4 -8 -39 -43l-32 -22l-54 -21l-94 -22q-149 0 -299 78l-102 71l-82 -59l61 -43l41 -35q70 -70 70 -149q0 -28 -8 -41q0 -73 -74 -144q-64 -64 -176 -82l-109 -14l-73 -8l-68 -2l-86 4q-26 0 -47 12l-31 33l-8 59
l4 60q12 39 63 53l84 8l60 -4l26 -2l72 8q71 0 92 17l23 14l10 8l8 10l-6 4q-2 7 -63 43l-86 62q-31 28 -37 49l-13 43l-2 49l80 101q21 21 119 90l145 100l54 35l96 53l82 41l74 31q71 22 125 22q3 0 19 1t22 -0.5t24.5 -8.5t42.5 -22q38 -14 68 -52l32 -37l23 -32
q4 -7 9 -21.5t10.5 -31t7.5 -21.5zM1055 799l-6 12l-27 33q-20 14 -37 14l-24 6q-19 0 -56 -16l-24 -12l-17 -11l-78 -43l41 -22q104 -49 168 -49l35 37q5 7 25 51z" />
    <glyph glyph-name="u" unicode="u" 
d="M27 16l-7 9zM27 0l-7 8zM870 2066q12 2 52 23l77 45q42 22 58 41l35 35q13 13 18 26l-10 5l-39 24q-7 5 -28.5 10.5t-37.5 5.5l-30 5l-95 -2q-104 0 -104 112q0 47 29 94q29 19 96 25q37 0 61 -4q54 0 76 -8l62 -13q32 -8 40 -16l46 -20l45 -29q7 -2 22 -21l33 -43
q37 -40 37 -96l-6 -61l-13 -27l-18 -31l-23 -32l-45 -54l-45 -41l-51 -32l-68 -48l-98 -57l-47 -20q-4 -1 -55 -29l-25 -6l-37 -4q-41 0 -77 22q-31 31 -31 64q0 14 1.5 26t3 19.5t5 15.5t5 11.5t6 10t5.5 7.5q3 18 68 39q71 23 102 28z" />
    <glyph glyph-name="v" unicode="v" horiz-adv-x="1376" 
d="M1262 905l12 -53q5 -12 -3 -44.5t-20 -49.5l-63 -82l-29 -27l-29 -24l-65 -47l-86 -54l-66 -37l-67 -41l-94 -57l-146 -86l-80 -47l-159 -80l-56 -20q-83 -47 -131 -47q-80 0 -98 88l-10 53q0 37 10 57q11 35 90 35q25 0 35 10l88 25q28 2 59 18l97 47l94 45
q66 34 110 66l45 22l-32 17q-50 44 -66 74q-6 13 -24 125q0 77 36 127q19 29 95 92q31 24 94 51q56 20 121 20h34l39 2l31 -2q2 -1 17.5 -4t29 -6.5t31.5 -10.5t29 -16q40 -7 106 -73l10 -29zM987 801l43 51h-10l-33 16l-26 6l-80 -4l-66 -39l-20 -24l-17 -19l13 -24
q23 -23 61 -23l59 13l13 8l20 8l17 12q19 8 26 19z" />
    <glyph glyph-name="w" unicode="w" horiz-adv-x="1337" 
d="M1206 887l11 -84l2 -29l-2 -61q0 -22 -13 -66l-16 -102q-8 -48 -45 -123l-47 -90q-6 -18 -25 -37q-12 -22 -31 -31.5t-71 -9.5q-11 0 -43 16l-33 23l-8 18v25q0 54 20 80l45 86q28 36 49 129q14 64 17 84q0 8 2 14l-2 41l-58 -47l-45 -35l-143 -110l-102 -72l-148 -90
l-63 -35l-99 -62l-141 -75q-13 -6 -37 -17.5t-41 -19t-24 -10.5l-37 -2q-37 0 -55.5 15.5t-26.5 49.5l-16 33l-3 22q-3 17 7 50l6 36q0 25 35 37l81 17q41 7 64 20l84 37q151 77 270 160q61 30 123 78l60 43l51 38l137 107l86 72l63 59q62 -6 97 -47q20 -15 41 -66z" />
    <glyph glyph-name="x" unicode="x" horiz-adv-x="1425" 
d="M1348 860l4 -51v-37q0 -23 -4 -43q0 -18 -17 -49l-16 -27l-27 -35l-35 -36l-28 -19l-47 -22l-88 -21q-111 0 -230 45q-89 36 -160 97l-71 -58l96 -72q59 -65 59 -137l-2 -24l-6 -27q0 -44 -37 -96q-61 -83 -186 -109l-109 -16l-137 -8l-57 4q-36 0 -57 12q-20 7 -35 31
l-13 55q0 38 7 66q9 20 55 41l88 10l41 -2l33 -2l90 6q30 0 73 16l29 21l4 8l-4 4l-35 29l-106 65q-35 35 -47 78l-6 49l59 82q15 26 76 66l53 41l141 98l148 80q10 4 22 10.5t27.5 17t24.5 15.5l65 28q28 8 64 13q51 7 55 8l55 -8q24 -3 49 -23q22 -4 35 -14q17 -7 29 -25
l30 -37l23 -32q15 -25 25 -66zM1130 741l21 45l-12 21q-23 36 -56 39l-18 6q-27 0 -47 -14l-51 -29l-70 -37l39 -20l70 -29q56 -21 90 -21q8 6 12 13zM885 1323q41 7 74.5 -15t44.5 -63q2 -6 2 -22q0 -36 -21.5 -64t-56.5 -35q-8 -2 -23 -2q-34 0 -61.5 20t-34.5 42
q-4 21 -4 39q0 37 22.5 66.5t57.5 33.5z" />
    <glyph glyph-name="y" unicode="y" horiz-adv-x="1611" 
d="M1313 1030l35 21q37 21 45 18l37 -4l36 -55q33 -62 33 -133q0 -56 -14 -113q-10 -58 -45 -135q-76 -169 -129 -246l-58 -61l-53 -54l-59 -35l-58 -12q-55 0 -90 29.5t-35 79.5q0 26 10 46t40 50q70 62 114 123l60 102l37 70q-12 -9 -105 -31h-27h-22q-71 0 -94 2l-37 -43
l-41 -45l-49 -43l-135 -102l-185 -129l-108 -64q-80 -56 -199 -106l-92 -35h-41q-98 0 -119 113v24v12q0 70 33 103q35 18 86 24l37 -4l41 13l74 28q2 1 17.5 7t22.5 10l52 28q155 76 315 205l115 90l-13 19q-34 51 -40 100q0 60 28 96l27 27l59 41l66 8l39 -2q25 0 45 -10
q18 0 35 -17q13 -19 20 -49l10 -53l111 8q83 28 102 39q32 16 66 45z" />
    <glyph glyph-name="z" unicode="z" horiz-adv-x="1355" 
d="M1229 944q-17 -39 -60 -61l-71 -35l-49 -21l-103 -43l-26 -12l133 -39q25 -9 35 -14.5t19 -21.5t9 -44q-20 -37 -26 -48t-19.5 -27t-26.5 -19.5t-34 -3.5l-158 18l-154 41l-45 -22l-123 -80l-84 -72l-28 -37l-23 -34q-13 -13 8 -47q18 -23 50 -41q64 -23 206 -23h19.5
h25.5t28.5 0.5t34 2t37.5 4.5t43.5 7.5t46.5 11t52 15.5q16 8 41 8q39 0 66.5 -24t27.5 -64q0 -59 -57 -113q-13 -16 -150 -34l-190 -11q-170 0 -270 28.5t-166 96.5q-64 72 -64 162l2 33q0 7 15 53q6 23 22 49l35 45q42 55 100 97l45 30l43 29l48 29l-35 32l-13 52
q0 28 25 59q28 28 92 43l51 -2q25 0 39 -14l33 -19l39 29l47 20l88 54l33 20l86 43q29 22 68 31l55 8l67 -4l45 -43q0 -28 15 -78z" />
    <glyph glyph-name="braceleft" unicode="{" horiz-adv-x="833" 
d="M168 979l8 12l43 29l35 20q27 3 37 13q25 3 31 12l34 12l27 17l23 22l20 31l39 90l35 115l39 143l47 162l18 53l23 57q10 30 32 62l15 26l26 33l54 49l37 25l34 14l88 19l54 4l18 2q33 0 39 -6l-53 -21l-78 -49q-60 -51 -90 -102l-62 -137l-18 -68l-27 -107l-20 -73
l-17 -78l-22 -78l-31 -78l-14 -37l-4 -12l-15 -16q-14 -25 -22 -33l-25 -29l-59 -53l-41 -20l-35 -13l53 -45l31 -47l12 -59l-10 -64l-20 -76l-29 -88l-27 -96l-32 -106l-21 -80l-20 -72l-13 -61l-8 -52l8 -47q2 -20 17 -45l39 -41l61 -47l-55 -2l-53 2q-44 0 -78 21
q-33 9 -51 39q-22 22 -31 49q-6 30 -6 71v31l10 53q0 40 20 93l11 45q4 18 22 51l41 127l33 106q22 107 22 162q0 20 -10 33l-22 26l-31 23l-37 18l-29 21q-17 7 -20 16l-6 17z" />
    <glyph glyph-name="braceright" unicode="}" horiz-adv-x="833" 
d="M739 1022q-42 14 -75 59q-25 36 -25 90v11q0 69 21 142t73 198l15 37l4 40q0 43 -11 76l-28 74l-33 70l-31 63l-14 60l-4 20l8 33q5 13 29 30l37 17l59 20l57 6h15q31 -6 51 -26q27 -15 37 -47q16 -32 22 -66l10 -84v-53l-10 -39l-4 -45l-12 -53l-41 -129l-39 -115
l-31 -96l-22 -84l-6 -68q0 -60 49 -102l28 -19l37 -20q-44 -14 -82 -47l-37 -27l-32 -26l-27 -33l-18 -29l-41 -69l-25 -68l-20 -74l-21 -74l-16 -73l-25 -96q-7 -38 -31 -97l-12 -47l-18 -45l-45 -84l-60 -67l-76 -50l-96 -20l-35 -4l-90 8l58 16q29 13 45 29q22 6 43 33
q24 17 39 47l34 68l15 30l20 51l37 103l37 125l16 51l13 57l20 70l12 43l13 35l39 76l16 34l33 43l26 31l37 29q30 28 88 51z" />
    <glyph glyph-name="nbspace" unicode="&#xa0;" horiz-adv-x="1024" 
 />
    <glyph glyph-name="NULL" 
 />
    <glyph glyph-name="CR" horiz-adv-x="694" 
 />
  </font>
</defs>
</svg>
