<?xml version="1.0" standalone="no"?>
<!DOCTYPE svg PUBLIC "-//W3C//DTD SVG 1.1//EN" "http://www.w3.org/Graphics/SVG/1.1/DTD/svg11.dtd" >
<svg xmlns="http://www.w3.org/2000/svg" xmlns:xlink="http://www.w3.org/1999/xlink" version="1.1">
<metadata>
Created by FontForge 20170731 at Fri Dec 19 23:29:17 2014
 By Aleksey,,,
Gadir for Sehga Soft Tel : 31 33 99
</metadata>
<defs>
<font id="MvMAGXB" horiz-adv-x="49" >
  <font-face 
    font-family="Mv MAG Round XBold"
    font-weight="700"
    font-style="italic"
    font-stretch="normal"
    units-per-em="2048"
    panose-1="2 0 5 0 3 2 0 9 0 0"
    ascent="1638"
    descent="-410"
    bbox="-88 -1053.01 1792 1845.77"
    underline-thickness="100"
    underline-position="-490"
    slope="-16"
    unicode-range="U+0020-FDF2"
  />
<missing-glyph horiz-adv-x="2048" 
d="M1792 0h-1536v1536h1536v-1536zM384 1408v-1280h1280v1280h-1280z" />
    <glyph glyph-name="uniFDF2" unicode="&#xfdf2;" horiz-adv-x="1870" arabic-form="isolated" 
d="M1586 437q-92 9 -111 99l-1 2l-1 3l-1 8v2v8q0 69 6 189q6 122 6 173q0 231 -23 424q-3 26 -3 43q0 74 44 118q39 40 96 40q56 0 93 -36q43 -40 45 -108q7 -182 13 -315q3 -56 -11 -320q-9 -172 -47 -254.5t-105 -75.5zM388 256l-12 -29q-13 -40 -36 -116
q-27 -96 -119 -96q-12 0 -17 1q-47 -5 -81 32t-34 85q0 63 36 175q34 104 70 167q30 49 79 88q56 44 106 44q71 0 118 -68q16 -22 61 -128l39 -32h2q16 -3 60 -3q58 0 86 108q18 72 18 160q0 30 -11 107q-7 52 49 94q50 37 105 37q47 0 79 -44q27 -36 32 -88
q11 -152 -22 -284q22 -9 54 -9q108 0 108 251q0 138 -26 257q-12 56 -12 80q0 50 44 96q40 42 93 42q102 0 121 -100q21 -107 21 -284q0 -415 -127 -524q-118 -101 -253 -101q-45 0 -76 18l-49 36q-80 -110 -243 -110q-191 0 -263 138zM657 1235l-2 6q-5 36 7 49l1 2
q5 25 32 44.5t54 19.5q41 0 69 -31.5t26 -80.5q8 -8 12 10l2 15q-3 35 -3 51q0 111 114 111q132 0 102 -213q-33 -233 -198 -233q-51 0 -89 24q-8 -11 -17 -20l-3 -2l-35 -20l-4 -2q-36 -11 -67 -11q-83 0 -151 65l-2 2q-42 59 -42 107l-5 29q0 120 110 120q16 0 34 -5l3 -1
l4 -2l2 -1q13 -8 32 -50q10 -22 14 -23t3 18q-1 8 -3 22z" />
    <glyph glyph-name=".notdef" horiz-adv-x="2048" 
d="M1792 0h-1536v1536h1536v-1536zM384 1408v-1280h1280v1280h-1280z" />
    <glyph glyph-name=".null" horiz-adv-x="0" 
 />
    <glyph glyph-name="nonmarkingreturn" horiz-adv-x="682" 
 />
    <glyph glyph-name="space" unicode=" " horiz-adv-x="1000" 
 />
    <glyph glyph-name="exclam" unicode="!" horiz-adv-x="599" 
d="M542 1170q0 -22 -5 -45l-110 -535q-11 -54 -58 -89q-49 -35 -102 -35q-121 0 -121 126q0 22 3 41l104 504q31 153 169 153q120 0 120 -120zM112 111l-47 37l-26 52v30q0 105 75 147l53 32q59 9 60 9q56 0 93 -38t40 -97q-30 -178 -187 -178q-1 0 -61 6z" />
    <glyph glyph-name="numbersign" unicode="#" horiz-adv-x="955" 
d="M845 1028l-28 -83q102 -1 102 -80q0 -83 -51 -111q-37 -21 -123 -19l-38 -109q25 0 54 -6l33 -29l13 -35v-37q0 -46 -44 -75q-34 -31 -132 -31l-74 -202q-37 -100 -128 -100q-92 0 -92 71q0 55 73 232h-64l-66 -202q-33 -101 -133 -101q-90 0 -90 82q0 40 71 220
q-41 1 -84 35q-13 20 -13 43q0 85 50 114q36 22 124 21l36 107q-51 1 -91 41q-9 44 -9 47q0 127 178 123l68 206q32 98 132 98q36 0 62.5 -26.5t26.5 -62.5q0 -16 -6 -31l-64 -184h60l70 206q35 98 130 98q86 0 86 -90q0 -12 -39 -130zM488 626l36 109h-62l-36 -109h62z" />
    <glyph glyph-name="dollar" unicode="$" horiz-adv-x="900" 
d="M501 663l-53 -251q111 34 132 134q3 14 3 26q0 57 -82 91zM623 1219q162 -24 195 -163q4 -15 4 -34q0 -123 -112 -123q-64 0 -77 61q-20 79 -49 107l-51 -230q201 -47 226 -165q7 -25 7 -53q0 -88 -57 -172q-54 -79 -135 -123q-67 -36 -151 -45q-14 -81 -49 -194
q-16 -25 -51 -25q-65 0 -48 77l31 142q-94 13 -159 74q-68 65 -68 152q0 20 5 48q19 91 115 91q71 0 83 -81q14 -95 60 -116l51 238q-206 65 -206 209q0 28 8 66q50 232 311 260q24 115 79 115q49 0 49 -51q0 -12 -11 -65zM438 858l47 218q-91 -34 -108 -111
q-16 -69 61 -107z" />
    <glyph glyph-name="percent" unicode="%" horiz-adv-x="1050" 
d="M554 1001q0 -5 -2 -17l-3 -5q-35 -102 -107 -172q-85 -80 -188 -77l-56 1q-68 1 -117 75q-41 64 -41 127q0 121 90 218q92 98 214 98q210 0 210 -248zM879 1231q7 2 23 5q103 0 103 -114q-10 -34 -79 -122l-624 -793q-69 -88 -129 -88q-68 0 -103 71q0 59 22 93l57 68
l705 873l8 2q9 3 17 5zM267 965q7 -7 19 -12q38 12 38 61q0 10 -14 10q-10 0 -27 -13q-13 -18 -18 -33q0 -3 2 -13zM749 319q44 0 44 48q0 18 -15 18q-22 0 -40 -39q-2 -27 11 -27zM1022 404q0 -121 -94 -216q-93 -95 -214 -95q-85 0 -149 59q-62 59 -62 148q0 122 93 216
q93 96 215 96q85 0 147 -61q64 -61 64 -147z" />
    <glyph glyph-name="ampersand" unicode="&#x26;" horiz-adv-x="1035" 
d="M367 1121q108 127 302 127q191 0 239 -129q23 -59 8 -122q-19 -85 -103 -160q-60 -49 -166 -108q42 -72 119 -187q43 67 49 76q27 43 56 70q32 29 72 29t62.5 -27.5t12.5 -66.5q-16 -77 -135 -219q46 -42 122 -131q12 -19 4 -52q-9 -41 -45 -71t-77 -30q-37 0 -68 24
q-23 19 -106 102q-167 -126 -365 -126q-121 0 -205 48q-95 56 -114 156q-11 58 3 117q43 193 320 321q-74 137 -53 230q16 70 68 129zM256 454q-16 -69 26 -117q42 -47 111 -47q93 0 207 87q-70 82 -170 251q-152 -80 -174 -174zM724 1001q9 42 -16 69t-69 27q-41 0 -79 -27
q-39 -26 -50 -68q-8 -40 53 -145q68 37 96 58q54 41 65 86z" />
    <glyph glyph-name="quotesingle" unicode="'" horiz-adv-x="420" 
d="M334 1185q0 -40 -46 -258q-9 -42 -47 -74q-37 -31 -79 -31q-41 0 -66 31q-23 28 -23 65q0 119 29 264q9 41 56 70q43 26 83 26q93 0 93 -93z" />
    <glyph glyph-name="parenleft" unicode="(" horiz-adv-x="592" 
d="M535 1136q0 -36 -56 -192l-75 -202q-34 -101 -61 -279q-26 -179 -26 -290q0 -91 18 -324q5 -67 -44 -111q-41 -35 -81 -35q-58 0 -71 43q-46 134 -46 370q0 254 63 532q61 268 166 488q54 112 119 112q35 0 62 -27q32 -34 32 -85z" />
    <glyph glyph-name="parenright" unicode=")" horiz-adv-x="599" 
d="M78 -194q0 50 37 137q32 79 55 132q125 372 125 737q0 44 -8 151q-8 109 -8 152q0 56 50 98q41 37 76 37q112 0 112 -441q0 -341 -107 -689q-52 -170 -88 -254q-73 -166 -149 -166q-95 0 -95 106z" />
    <glyph glyph-name="asterisk" unicode="*" horiz-adv-x="998" 
d="M76 537l2 2q21 20 185 82q-93 35 -115 53q-46 36 -46 112q0 51 46 79q38 23 91 23h2q53 0 159 -54q29 148 43 185q11 27 57 54q47 28 74 23q99 -23 111 -85q19 -49 -22 -175q113 71 158 72q119 6 115 -120q-5 -95 -140 -141l-68 -24q73 -29 96 -46q35 -26 66 -83
q2 -6 2 -7q0 -79 -30 -111.5t-104 -32.5h-3q-51 10 -97 27l-4 2l-82 66q-28 -114 -38 -171q-17 -95 -138 -101h-5l-48 12l-4 2q-40 25 -55 66l-1 2q-9 51 32 157q-114 -78 -174 -78q-48 0 -81 38l-2 3q-30 54 -30 86q0 40 48 83z" />
    <glyph glyph-name="plus" unicode="+" horiz-adv-x="1045" 
d="M411 750l44 206q16 81 107 134l53 8q45 0 83 -32t38 -81q0 -57 -45 -235h198q50 0 85 -31q40 -34 40 -86q0 -72 -50 -119q-50 -45 -121 -45h-213l-45 -216q-50 -134 -161 -134q-47 0 -84 34q-36 35 -36 84t45 225q-173 -3 -245 12q-52 24 -69 65l-11 70q45 141 175 141
h212z" />
    <glyph glyph-name="comma" unicode="," horiz-adv-x="669" 
d="M402 669l-13 -27q127 6 127 -129v-32q-38 -180 -214 -204q-20 -2 -22 -2q-113 0 -132 139q1 -6 1 1l1 55q15 117 109 254q32 47 68 71q26 35 149 103q46 16 89 15q26 0 48 -37q-6 -49 -37 -76q-13 -11 -73 -42q-24 -14 -60 -42q-30 -33 -41 -47z" />
    <glyph glyph-name="hyphen" unicode="-" horiz-adv-x="664" 
d="M591 520l5 -35q6 -41 -54 -71q-50 -26 -97 -26h-268q-45 0 -86 29q-20 40 -20 72q0 107 141 107h267q27 0 63 -17q45 -23 49 -59z" />
    <glyph glyph-name="period" unicode="." horiz-adv-x="381" 
d="M161 338h-28l-20 7q-12 5 -33 30l-9 19l-11 23q0 16 -4 20l5 29q10 55 56 90q43 40 99 40q72 0 100 -66l5 -33l-1 -31q-10 -50 -59 -93q-46 -35 -100 -35z" />
    <glyph glyph-name="slash" unicode="/" horiz-adv-x="664" 
d="M723 1412q7 -49 7 -57q0 -51 -60 -199l-441 -1100q-22 -58 -83 -58q-105 0 -105 141q0 54 58 201l402 1033q48 125 116 125q65 0 106 -86z" />
    <glyph glyph-name="zero" unicode="0" horiz-adv-x="1045" 
d="M1006 807q0 -249 -165 -462q-175 -228 -423 -228q-361 0 -361 464q7 35 20 104q43 222 185 380q160 183 380 183q364 0 364 -441zM465 405q121 0 185 159q48 122 48 266q0 54 -29 90.5t-73 36.5q-100 0 -170 -142q-61 -123 -61 -252q0 -158 100 -158z" />
    <glyph glyph-name="one" unicode="1" horiz-adv-x="599" 
d="M214 960h-16q-138 -2 -138 121q0 70 47 120q46 49 119 49h194q129 0 129 -114q0 -24 -6 -46l-171 -811q-31 -154 -174 -154q-65 0 -113 51q-18 50 -21 83q19 77 150 701z" />
    <glyph glyph-name="two" unicode="2" horiz-adv-x="985" 
d="M575 954q-49 0 -115 -110q-66 -109 -149 -109q-135 0 -135 118l-2 64q55 150 181 241q125 90 285 90q140 0 223 -89t83 -225q0 -13 -4 -26l-4 -19q-36 -142 -156 -269q-79 -73 -235 -215h213q52 0 85 -38q33 -37 33 -86q0 -67 -50 -117q-50 -48 -117 -48h-520
q-163 0 -163 112q0 86 146 214l274 231q155 143 168 256q-13 25 -41 25z" />
    <glyph glyph-name="three" unicode="3" horiz-adv-x="899" 
d="M552 954q-32 3 -37 3q-20 0 -100 -61q-79 -61 -136 -63q-63 9 -90 42q-27 51 -27 99q0 56 73 129q58 58 112 85q115 61 230 61q220 0 289 -193q9 -22 9 -43q0 -181 -135 -283q87 -63 87 -202q0 -190 -149 -310q-143 -113 -343 -105q-114 4 -210 70q-106 76 -106 194
q0 80 49 133q50 54 108 54q62 0 94 -59t32 -60q18 -27 54 -44h50q45 1 81 37q35 35 35 81q0 31 -39 44q-44 8 -65 13q-68 15 -85 47q-12 18 -16 94q11 29 24 54q22 24 156 83q79 34 79 72q0 16 -24 28z" />
    <glyph glyph-name="four" unicode="4" horiz-adv-x="1014" 
d="M944 1063q0 -55 -44 -243l-49 -207h8q135 -5 135 -109q0 -161 -201 -167q-15 -79 -23 -101q-20 -53 -53 -89q-52 -28 -83 -36h-31q-51 0 -85.5 34t-34.5 85q0 34 17 107h-340q-136 0 -136 109q0 60 59 130l482 559q99 115 211 115q168 0 168 -187zM438 613h122l51 219z
" />
    <glyph glyph-name="five" unicode="5" horiz-adv-x="1000" 
d="M489 1250h365q51 0 86 -33.5t35 -84.5q0 -177 -276 -177q-13 0 -79 2q-64 2 -66 2l-18 -45q20 4 46 4q116 0 199 -87q83 -86 83 -211q0 -209 -146 -358q-145 -148 -358 -148h-35q-116 0 -200 51q-100 63 -100 183q0 55 59 102q53 43 104 43q46 0 107 -42t105 -42
q58 0 90 39q15 17 46 89l6 48v-2q0 71 -63 71q-25 0 -64 -10t-63 -10q-42 0 -101 39q-65 44 -65 93q0 59 51 176q75 174 75 175q45 133 177 133z" />
    <glyph glyph-name="six" unicode="6" horiz-adv-x="849" 
d="M578 863l-28 -25q167 0 221 -79q54 -80 54 -184q0 -183 -134 -322q-134 -137 -317 -137q-349 0 -349 303q0 311 417 678q172 153 256 153q113 0 127 -146q3 -36 -103 -129q-61 -49 -144 -112zM539 532q-19 72 -75 72q-48 0 -95 -47t-47 -93q2 -5 5 -16l6 -17l3 -9
q16 -25 69 -25q49 0 90 41q41 43 44 94z" />
    <glyph glyph-name="seven" unicode="7" horiz-adv-x="929" 
d="M286 1252h486q44 0 85 -38q43 -42 43 -102q0 -48 -49 -119l-523 -775q-70 -103 -159 -103q-125 0 -137 148q10 40 34 75l435 633h-252q-72 0 -111 73l-3 11l-4 15q-8 26 -8 35q0 147 163 147z" />
    <glyph glyph-name="eight" unicode="8" horiz-adv-x="919" 
d="M602 927q0 13 -15 26l-11 10l-12 3l-9 4q-37 0 -63.5 -29.5t-26.5 -71.5q0 -35 47 -35q32 0 61 30q29 31 29 63zM852 506q0 -4 -2 -18l-3 -11q-36 -169 -163 -266t-310 -97h-68q-101 0 -190 86q-87 87 -87 190q0 219 181 337q-47 80 -47 131q0 170 138 285
q129 108 296 108q146 0 228 -80t82 -225q0 -13 -5 -41q-8 -34 -8 -42q-64 -102 -115 -145q73 -67 73 -212zM551 527q0 74 -74 74q-131 0 -131 -143q0 -16 9 -31l27 -19l21 -4q16 -2 18 -2q50 0 90 37t40 88z" />
    <glyph glyph-name="nine" unicode="9" horiz-adv-x="899" 
d="M307 507h-10q-138 -7 -195 69q-57 77 -62 172q-2 25 -5 35q8 196 145 330q138 135 332 135q142 0 237 -69q110 -80 110 -223q0 -202 -167 -416q-82 -106 -321 -330q-107 -99 -177 -99q-55 0 -91 47q-31 43 -31 94q0 38 98 128q132 120 137 127zM344 833q0 -68 75 -68
q57 0 96 40q40 40 40 97q0 58 -81 58q-46 0 -89 -41q-41 -41 -41 -86z" />
    <glyph glyph-name="colon" unicode=":" horiz-adv-x="494" 
d="M188 122q-67 0 -114 47t-47 113q0 69 46 115q47 47 115 47t115 -47q46 -46 46 -115q0 -64 -48 -112t-113 -48zM268 582q-67 0 -114 47t-47 113q0 69 46 115q47 47 115 47t115 -47q46 -46 46 -115q0 -64 -48 -112t-113 -48z" />
    <glyph glyph-name="semicolon" unicode=";" horiz-adv-x="594" 
d="M188 122q-67 0 -114 47t-47 113q0 69 46 115q47 47 115 47t115 -47q46 -46 46 -115q0 -64 -48 -112t-113 -48zM240 1043q27 31 110 84q51 32 102 31q46 -10 51 -36q9 -23 0.5 -47t-41.5 -43q-6 -3 -42 -16q-35 -12 -75 -55q-21 -28 -44 -69q64 1 95 -32t29 -100
q-23 -240 -228 -237q-148 5 -149 146l4 36q8 171 188 338z" />
    <glyph glyph-name="less" unicode="&#x3c;" horiz-adv-x="730" 
d="M427 187l-410 210l-33 17l-10 9l-10 10l-9 13l-5 37q16 37 39 52l28 17l48 21l478 202l48 17l33 4q28 0 40 -20q14 -11 14 -36l-3 -17q-11 -51 -66 -73l-432 -167l362 -167q36 -20 36 -54l-2 -19q-12 -57 -81 -76q-24 0 -31 5z" />
    <glyph glyph-name="equal" unicode="=" horiz-adv-x="797" 
d="M119 730h522q33 0 57 -21l6 -9l3 -19q0 -19 3 -27q-5 -31 -35 -56q-24 -26 -67 -26h-522q-69 0 -69 57l2 25l5 19l6 13l22 23q21 21 67 21zM59 444h527q38 0 52 -23l6 -13l3 -13l1 -13v-18q-4 -25 -36 -58q-28 -20 -66 -20h-522q-69 0 -69 55l3 23q9 37 32 57l33 17z" />
    <glyph glyph-name="greater" unicode="&#x3e;" horiz-adv-x="730" 
d="M183 773l413 -208q59 -32 59 -91q-8 -34 -28 -47l-79 -42l-482 -200l-46 -17l-34 -8q-55 10 -55 66v11q16 46 70 75l433 164l-362 168q-23 8 -30 26l-8 18l-1 28l3 11l4 7l5 13l17 20l26 16l27 7l30 -2z" />
    <glyph glyph-name="at" unicode="@" horiz-adv-x="1440" 
d="M188 323q-65 53 -87 196q-16 109 17 256q38 158 162 290q121 130 278 183q90 31 198 31q86 0 177 -19q182 -39 280 -179q88 -127 88 -312q0 -79 -16 -156q-41 -193 -168 -336q-138 -154 -325 -184q-82 -13 -131 -13q-137 0 -137 89q0 21 7 42l1 3q46 94 156 91
q142 -3 249 95q97 92 132 237q25 99 5 223q-19 116 -117 172q-85 49 -175 49q-176 0 -345 -178q-42 -45 -74 -132q-32 -86 -30 -151q1 -55 30 -55q43 0 125 84q48 48 240 274l4 3l40 23l5 2q37 5 55 5q73 0 112 -71l1 -2q31 -90 31 -168q0 -64 -23 -159l-1 -3
q-22 -96 -91 -165l-4 -2q-44 -22 -79 -22q-49 0 -91 45q-25 29 3 93l3 4q40 41 53 115q-122 -155 -278 -269q-89 -65 -156 -65q-79 0 -124 36z" />
    <glyph glyph-name="bracketleft" unicode="[" horiz-adv-x="725" 
d="M473 889h-128v-1111h128q99 0 99 -82q0 -81 -99 -81h-190q-70 0 -103 34.5t-33 104.5v1159q0 72 32 105.5t104 33.5h190q99 0 99 -82q0 -81 -99 -81z" />
    <glyph glyph-name="backslash" unicode="\" horiz-adv-x="575" 
d="M192 986l208 -860q16 -60 16 -85q0 -66 -77 -66q-30 0 -47 14q-15 12 -23 33q-6 16 -19 72l-208 860q-15 64 -15 84q0 31 20 49t56 18q44 0 58 -26q15 -29 31 -93z" />
    <glyph glyph-name="bracketright" unicode="]" horiz-adv-x="725" 
d="M125 -222h126v1114h-126q-49 0 -75 22t-26 59q0 38 26 60t75 22h189q71 0 103.5 -34t32.5 -106v-1160q0 -73 -32.5 -106.5t-103.5 -33.5h-189q-49 0 -75 22t-26 59q0 38 26 60t75 22z" />
    <glyph glyph-name="braceleft" unicode="{" horiz-adv-x="788" 
d="M301 362q88 -56 119 -133.5t31 -241.5q0 -145 19 -179q11 -19 26 -25.5t54 -12.5q33 -5 53 -31.5t20 -68.5q0 -100 -121 -100q-114 0 -185 69.5t-73 181.5q-7 273 -13 300q-11 51 -34 80t-66 55q-42 27 -56 44q-16 19 -16 62q0 61 48 91q59 37 84 63q24 24 35 67
q10 40 12 89l6 232q2 115 72 182q71 68 186 68q121 0 121 -98q0 -44 -19.5 -70t-53.5 -30q-46 -6 -66 -20q-19 -13 -25 -51q-7 -41 -8 -147q-2 -165 -30.5 -242t-119.5 -134z" />
    <glyph glyph-name="bar" unicode="|" horiz-adv-x="575" 
d="M354 991v-1312q0 -53 -24 -81t-64 -28t-65 28.5t-25 80.5v1312q0 52 25 80.5t65 28.5t64 -29t24 -80z" />
    <glyph glyph-name="braceright" unicode="}" horiz-adv-x="788" 
d="M377 385q-89 55 -122.5 137t-33.5 250q-1 69 -3.5 102.5t-5 60t-16.5 36t-24 14t-42 9.5q-7 1 -10 2q-34 5 -54.5 32t-20.5 71q0 101 123 101q117 0 192 -71.5t76 -185.5q4 -281 12 -310q12 -52 36 -81t67 -56q41 -23 57.5 -45.5t16.5 -65.5q0 -64 -48 -94
q-61 -37 -87 -64q-27 -28 -37 -69q-12 -50 -17 -329q-3 -118 -76 -188q-73 -71 -192 -71q-59 0 -91 26.5t-32 76.5q0 43 21 71t54 31q40 6 58 14t27 28q16 34 16 182q2 120 13 183q12 67 45 114.5t98 88.5z" />
    <glyph glyph-name="guillemotleft" unicode="&#xab;" horiz-adv-x="1229" 
d="M1130 43q0 -42 -42 -42q-18 0 -44 23l-448 410l448 410q26 24 44 24q42 0 42 -43q0 -16 -22 -41l-313 -350l313 -349q22 -25 22 -42zM668 55q-3 -50 -49 -54q-27 -4 -59 20l-433 413l409 411q44 34 74 32q51 -9 51 -52q1 -25 -23 -56l-292 -334l301 -329q21 -30 21 -51z
" />
    <glyph glyph-name="uni00B7" unicode="&#xb7;" horiz-adv-x="745" 
d="M606 508q0 -78 -61 -136q-60 -57 -137 -57q-60 0 -101 41t-41 101q0 77 63 137q62 61 139 61q60 0 99 -42t39 -105z" />
    <glyph glyph-name="guillemotright" unicode="&#xbb;" horiz-adv-x="1229" 
d="M602 844l448 -410l-448 -410q-26 -23 -44 -23q-42 0 -42 42q0 17 22 42l313 349l-313 350q-22 25 -22 42q0 42 42 42q18 0 44 -24zM132 844l449 -410l-449 -410q-26 -23 -43 -23q-42 0 -42 42q0 17 22 42l313 349l-313 350q-22 25 -22 42q0 42 42 42q17 0 43 -24z" />
    <glyph glyph-name="afii57388" unicode="&#x60c;" horiz-adv-x="455" 
d="M263 648h26q137 0 137 -135v-32q-38 -180 -214 -204q-20 -2 -22 -2q-113 0 -132 139q1 -6 1 1l1 55q15 117 109 254q32 47 68 71q26 35 149 103q46 16 89 15q26 0 48 -37q-6 -49 -37 -76q-13 -11 -73 -42q-24 -14 -60 -42q-30 -33 -41 -47q-12 -19 -26 -55z" />
    <glyph glyph-name="afii57403" unicode="&#x61b;" horiz-adv-x="452" 
d="M188 122q-67 0 -114 47t-47 113q0 69 46 115q47 47 115 47t115 -47q46 -46 46 -115q0 -64 -48 -112t-113 -48zM59 715v5q0 155 181 323q27 31 110 84q51 32 102 31q42 -10 57 -61q-11 -44 -47 -65q-6 -4 -76 -28l-41 -43q-21 -27 -59 -102l-24 34h26q140 0 137 -133
q-37 -242 -228 -237q-147 5 -144 129q1 34 6 63z" />
    <glyph glyph-name="afii57407" unicode="&#x61f;" horiz-adv-x="467" 
d="M511 934q-41 -30 -91 -30q-80 0 -106 80q-20 26 -31 27q-68 6 -103 -92l-3 -23q2 -30 28 -48q53 -28 63 -36q64 -48 64 -140q0 -168 -159 -171q-107 14 -107 108l5 30q0 9 -30 23q-59 29 -99 101q-30 77 -30 141q0 80 48 178q119 168 310 198q189 9 264 -130
q25 -46 25 -103q0 -79 -48 -113zM182 217q-32 -19 -72 -19q-65 0 -98 74l-5 25q-6 74 39 130l27 27q54 25 80 22q61 -7 92 -70l7 -28q6 -118 -70 -161z" />
    <glyph glyph-name="uni0780" unicode="&#x780;" horiz-adv-x="925" 
d="M856 367q-36 -49 -188 -180q-118 -101 -245 -191q-181 -135 -268 -133q-91 7 -130 62q-19 25 -27 83l6 45l18 37l42 33q92 45 214 120q149 100 333 271l42 36q43 26 83 26q56 0 100 -41q43 -40 43 -96q0 -40 -23 -72z" />
    <glyph glyph-name="uni0781" unicode="&#x781;" horiz-adv-x="1149" 
d="M1046 579q22 -8 40 -35q21 -29 24 -50q2 -18 2 -27q0 -139 -141 -218q-117 -66 -267 -66q-18 0 -66 2l-42 -51q-68 -64 -208 -173q-34 -29 -123 -81q-103 -47 -148 -47q-74 0 -119 48q-29 32 -29 89q0 76 56 111q11 7 69 27q79 28 190 105q68 47 98 80q-15 43 -15 79
q0 146 180 182q126 -1 161 -84q102 0 157 61t113 61q32 0 68 -13z" />
    <glyph glyph-name="uni0782" unicode="&#x782;" horiz-adv-x="1244" 
d="M872 493l10 -40q28 21 53 44q60 69 105 76q144 0 144 -135q0 -58 -68 -129q-181 -187 -314 -182q-12 -2 -19 -2q-57 0 -111 55l-8 13l-71 -2l-72 -72l-88 -80l-87 -73q-114 -95 -187 -117l-51 -15q-60 4 -85 16q-31 15 -58 66q-15 108 30 147q25 20 82 46q138 59 257 195
q-11 38 -11 67q0 49 35 99q36 50 83 65q39 13 76 13q82 0 112 -69l21 16l34 38q44 26 91 26q20 0 36 -4l39 -28z" />
    <glyph glyph-name="uni0783" unicode="&#x783;" horiz-adv-x="1080" 
d="M934 404l-76 -54l5 -6q57 -54 57 -123q0 -60 -50 -101q-38 -31 -61 -40q-13 -4 -70 -9q-73 -5 -165 32q-134 -105 -286 -198l-87 -53q-61 -24 -94 -24q-41 0 -88 32q-44 58 -44 109q0 91 96 141q51 18 209 115q30 18 83 57q-28 49 -28 99q0 116 124 146q73 17 164 -8
l27 18l72 54l47 28l50 31l55 21q81 11 129 -24q51 -37 51 -117q0 -48 -40 -79q-4 -3 -80 -47z" />
    <glyph glyph-name="uni0784" unicode="&#x784;" horiz-adv-x="1121" 
d="M178 -36q-32 12 -93 67l-36 49l-26 72l1 58q16 109 122 227q142 109 264 115q105 6 161 -71q128 74 237 74q116 0 174 -72q36 -43 36 -129q0 -36 -7 -65q-24 -108 -162 -207q-96 -69 -296 -130l-106 -18q-160 -10 -269 30zM626 239l1 1q12 3 38 18q20 11 26 25
q-35 5 -65 -44zM341 215q7 3 21 15q14 13 10 16q-14 11 -38 -15q-5 -5 -5 -15q6 -1 12 -1z" />
    <glyph glyph-name="uni0785" unicode="&#x785;" horiz-adv-x="959" 
d="M593 431q7 -1 85 21q81 23 101 26q126 0 126 -137l-12 -45l-41 -48l-114 -96l-71 -50l-64 -49l-131 -93l-118 -80l-139 -89q-38 -25 -90 -25q-65 0 -106 40t-44 105q7 65 34 93q18 19 88 49l67 39q117 68 182 118q-54 14 -109 75l-13 60q0 102 73 196l55 51
q115 79 205 79q93 0 125 -78q8 -21 8 -40q0 -35 -28 -67q-24 -19 -62 -54q-5 0 -7 -1z" />
    <glyph glyph-name="uni0786" unicode="&#x786;" horiz-adv-x="1039" 
d="M92 86l16 29q78 141 78 265q0 13 -2 41q-1 3 -1 11q0 32 44 79l45 22l72 14l59 -8q78 -43 85 -124q2 -28 -2 -66l-15 -51l-7 -18l100 68l53 45l55 48l65 57q35 29 73 45q106 3 145 -82q23 -51 10 -107l-21 -40q-73 -82 -173 -161l-86 -68l-92 -62q-211 -142 -344 -142
q-57 0 -106 31l-29 24q-33 36 -33 94q2 7 11 56z" />
    <glyph glyph-name="uni0787" unicode="&#x787;" horiz-adv-x="971" 
d="M115 -148q-60 0 -102 42q-42 40 -37 100q7 82 60 112q107 62 157 93q81 52 148 107l80 66l199 153l54 31l44 7q108 0 140 -96q8 -26 16 -93l1 -50l-4 -59q-8 -101 -44 -207q-45 -133 -106 -185q-37 -31 -120 -27q-47 3 -96 49q-24 38 -24 70q0 19 7 34q24 38 64 126l2 7
q-219 -184 -356 -255q-47 -25 -83 -25z" />
    <glyph glyph-name="uni0788" unicode="&#x788;" horiz-adv-x="911" 
d="M535 310q-23 2 -44 -8l-9 -13q-2 -6 -2 -7q0 -4 8 -6q33 7 47 34zM233 124l-3 2q-44 40 -54 75q-8 29 -7 88l13 51l23 42l31 41l61 56q82 54 197 88q56 6 96 6q176 0 236 -123q19 -37 17 -110q-13 -78 -73 -138q-65 -78 -197 -182q-39 -30 -132 -94l-72 -50l-122 -73
l-48 -25q-52 -20 -90 -20q-87 0 -132 109q-6 72 28 121l31 25l55 20q71 36 142 91z" />
    <glyph glyph-name="uni0789" unicode="&#x789;" horiz-adv-x="895" 
d="M160 407q0 39 37 94l56 37l45 14l69 10l53 3h101q86 0 180 -23l51 -19l42 -45q28 -47 28 -94q0 -50 -37 -124q-49 -67 -112 -124l-65 -59l-69 -55q-240 -192 -372 -227q-20 -2 -29 -2q-41 0 -78 17l-33 30l-21 36q-11 31 -11 50q0 87 67 129q135 59 236 132q64 47 129 96
q-39 -2 -154 -18q-68 3 -98 59q-15 28 -15 83z" />
    <glyph glyph-name="uni078A" unicode="&#x78a;" horiz-adv-x="939" 
d="M98 -58q176 91 280 166l99 73q-87 23 -87 91q0 12 3 25q10 45 116 104q-63 25 -63 87q0 72 89 131l87 18l98 45q133 4 133 -107q0 -39 -40 -88l-8 -6q57 -30 57 -81q0 -68 -83 -118q46 -34 46 -89q0 -27 -13 -47q-34 -55 -103 -107q-1 -1 -120 -89q-150 -111 -266 -184
l-65 -41l-54 -31q-83 -47 -141 -47q-34 0 -88 36q-40 60 -35 121q4 62 67 103q54 16 91 35z" />
    <glyph glyph-name="uni078B" unicode="&#x78b;" horiz-adv-x="1171" 
d="M112 -283q-129 -8 -140 133q-3 43 19 83q21 40 61 50q134 38 322 206q-5 28 -5 48q0 98 90 140q33 16 93 17q57 -5 85 -28l18 -21q34 -19 65 -19q59 0 59 38q0 11 -16 18q-54 18 -78 34q-37 25 -40 69q-5 59 24 101q31 46 89 46q63 0 107 11l47 25l40 5q86 0 132 -66
q25 -34 25 -70q0 -49 -43 -89q22 -47 22 -101q0 -129 -104 -209q-87 -67 -224 -89q-40 -3 -76 -3q-45 0 -76 4q-242 -211 -404 -305q-45 -27 -92 -28z" />
    <glyph glyph-name="uni078C" unicode="&#x78c;" horiz-adv-x="987" 
d="M445 65q18 -28 26 -99q-27 -110 -98 -166q-121 -96 -257 -96q-86 0 -123 54q-23 34 -16 104q3 31 45 74l29 16q44 2 62 6q28 6 56 24q-33 22 -63 47q-34 44 -34 94q0 82 93 172l71 56l109 77l96 56l85 41l75 26l62 7q238 0 238 -241q0 -42 -10 -78q-55 -210 -276 -210
q-93 0 -170 36zM629 283q-1 4 -9 4q-15 0 -46 -19q12 -4 26 -4q17 -1 26 4q4 9 3 15z" />
    <glyph glyph-name="uni078D" unicode="&#x78d;" horiz-adv-x="1050" 
d="M496 267l-18 -1l-51 -2l-79 -1q-71 11 -87 70l-1 41q6 33 36 72l66 52l33 20q60 47 79 63q51 45 65 76q16 40 87 40q105 0 137 -59q16 -31 6 -109l-13 -32l-16 -28l-25 37l49 6l53 5l58 3q102 5 132 -61q10 -21 10 -41q0 -24 -28 -70l-52 -59l-60 -49l-95 -82l-98 -80
l-110 -85l-323 -242l-53 -24l-58 -13q-56 8 -75 18q-68 35 -68 129q0 73 64 109l101 57q220 155 334 240z" />
    <glyph glyph-name="uni078E" unicode="&#x78e;" horiz-adv-x="901" 
d="M152 185q72 -19 154 12q25 10 25 22q0 20 -15 35q-26 26 -40 83q2 50 29 92l26 29l47 34l58 37q118 54 137 60q71 26 145 33q60 -29 80 -48q33 -33 37 -85l-5 -60q-21 -43 -68 -72q-158 -44 -158 -69q1 -6 11 -21q23 -35 23 -81q0 -82 -64 -158q-60 -55 -112 -78
q-30 -13 -126 -38q-70 -19 -140 -19q-146 0 -197 78q-12 34 -12 70q0 62 31 103q35 47 93 47q20 0 41 -6z" />
    <glyph glyph-name="uni078F" unicode="&#x78f;" horiz-adv-x="986" 
d="M457 52l71 13l56 15l82 37q43 13 73 13q51 0 89 -42q37 -40 37 -94q0 -62 -53 -104q-75 -60 -190 -81l-92 -17l-71 -6h-84l-78 4q-164 29 -230 99q-16 18 -40 62l-23 61q-6 127 49 209l36 54q9 12 53 61q-21 36 -21 75q0 99 100 154q47 26 95 26q69 0 107 -53l39 29
l35 20q41 15 70 15q69 0 89 -86q32 22 68 60l28 18l29 3q126 0 138 -117q-1 -67 -46 -118l-21 -24l-48 -42l-42 -32q-112 -64 -178 -64q-40 0 -77 18q-23 21 -35 44l-57 -3q-117 -100 -115 -156q0 -9 1 -13q10 -40 108 -40q14 0 48 2z" />
    <glyph glyph-name="uni0790" unicode="&#x790;" horiz-adv-x="1892" 
d="M1738 367q-23 -59 -118 -126q-144 -74 -331 -97q-208 -4 -599 18l-160 9l-83 8q-145 -190 -292 -190q-17 0 -34 3q-103 31 -103 127q0 51 12 72q14 21 57 45l19 16q-30 44 -30 84q0 42 36 109q80 98 200 114q95 0 154 -47q12 -12 35 -50l14 -23l29 -4l75 -8l112 -4
l373 -17q93 -4 154 3q70 8 142 40q41 18 117 91l40 28l39 8q110 3 147 -84q23 -53 -5 -125z" />
    <glyph glyph-name="uni0791" unicode="&#x791;" horiz-adv-x="769" 
d="M511 163l90 2q104 -8 104 -154l-19 -51q-26 -68 -156 -68q-63 0 -197 24q-61 11 -192 44q-79 30 -79 121q0 29 15 55q29 51 53 73l47 37l35 23l-13 5l-39 19q-40 26 -51 41q-13 16 -18 61q-3 27 15 69q44 47 109 83l93 71q52 40 105 42q105 5 140 -72q11 -25 11 -46
q0 -34 -25 -68q-12 -17 -49 -46l13 -3l50 -20l24 -18q42 -31 42 -92q0 -65 -108 -132z" />
    <glyph glyph-name="uni0792" unicode="&#x792;" horiz-adv-x="955" 
d="M187 263l29 26q-13 33 -13 67q0 51 31 104l41 38q65 36 114 36q39 0 93 -19q62 48 193 135q75 35 114 35q49 0 93 -41q32 -49 32 -95q0 -68 -67 -96l-97 -54q-14 -8 -23 -16q73 -45 73 -141q-20 -86 -114 -123q-100 -25 -228 1l-29 6q-73 -41 -95 -76q-9 -13 -18 -38
q9 -46 74 -49q75 -5 171 18l38 4l37 -2l26 -15q34 -20 50 -79l3 -47q-11 -57 -35 -80q-20 -20 -78 -42q-108 -20 -203 -20q-252 0 -340 133q-52 79 -45 164q8 82 51 137l41 52l47 48z" />
    <glyph glyph-name="uni0793" unicode="&#x793;" horiz-adv-x="1006" 
d="M351 319q-16 -15 -38 -26l36 -15q-5 17 -5 28q2 6 7 13zM351 319l2 1l2 2zM648 363q-1 -5 -14 -19q-12 -12 -61 -22l26 -39l22 33l28 23q9 7 10 11q0 8 -11 13zM310 -41q13 -25 90 -25q66 0 152 15q34 6 104 47q42 16 72 16q52 0 82 -39q30 -41 30 -93q0 -65 -40 -102
q-71 -65 -185 -86l-97 -18q-73 -7 -144 -7q-111 0 -188 20q-185 71 -185 221q0 103 79 195l17 20l-13 11l-31 39l-15 53q-5 85 20 141l42 71l31 35l29 26l38 30q92 57 179 57l53 -7l56 -20l37 -27q117 84 211 84q91 0 155 -52q49 -51 51 -125q2 -10 2 -18q0 -60 -39 -129
q-40 -69 -89 -106l-78 -59q-107 -59 -197 -72l-72 -11l-37 -4h-57q-66 -60 -63 -81z" />
    <glyph glyph-name="uni0794" unicode="&#x794;" horiz-adv-x="1118" 
d="M643 241q-25 0 -45 5q-44 -47 -114 -106q-106 -92 -254 -189l-56 -37l-90 -42h-41l-34 6l-27 12l-26 22l-25 28l-17 46q-2 18 -2 24q0 62 64 108q118 46 174 84q118 81 191 154q-13 30 -13 59q0 53 56 118l43 31l45 20l58 7q109 -1 138 -85l14 -1q100 17 159 42
q64 37 98 37q65 0 97 -59q28 -51 21 -117q-4 -46 -64 -188q-119 -211 -213 -236q-30 -8 -47 -8q-129 0 -146 116q-5 30 18 71q57 47 83 83q-28 -5 -45 -5z" />
    <glyph glyph-name="uni0795" unicode="&#x795;" horiz-adv-x="938" 
d="M103 -58q176 91 280 166l99 73q-87 23 -87 91q0 12 3 25q10 45 116 104q-63 25 -63 87q0 72 89 131l87 18l98 45q133 4 133 -107q0 -39 -40 -88l-8 -6q57 -30 57 -81q0 -68 -83 -118q46 -34 46 -89q0 -27 -13 -47q-34 -55 -103 -107q-1 -1 -120 -89q-150 -111 -266 -184
l-65 -41l-54 -31q-83 -47 -141 -47q-34 0 -88 36q-40 60 -35 121q4 62 67 103q54 16 91 35zM466 -227q0 50 41 96q41 45 90 45q125 0 125 -126q0 -54 -39 -94q-39 -41 -91 -41q-126 0 -126 120z" />
    <glyph glyph-name="uni0796" unicode="&#x796;" horiz-adv-x="904" 
d="M425 -3q56 2 137 25l64 31q30 14 54 14q46 0 94 -55l17 -45l3 -38q7 -80 -82 -129.5t-274 -68.5h-92q-165 0 -244 55q-53 38 -102 115q-16 54 -16 106q0 43 10 79q48 89 102 134q-2 26 -2 37q0 76 72 154q68 44 137 44q85 0 135 -71q27 -10 50 -10q30 0 44 21q3 5 3 8
q0 2 -2 4q-8 7 -38 17q-49 55 -49 102q0 64 73 100l48 3l30 -1l28 1l85 20q105 -3 122 -102l2 -38q-4 -19 -14 -37l11 -19l11 -45l1 -50q-7 -112 -86 -183q-72 -66 -190 -77q-105 -9 -205 7q-70 -40 -70 -69q0 -7 3 -11q13 -29 130 -28z" />
    <glyph glyph-name="uni0797" unicode="&#x797;" horiz-adv-x="1147" 
d="M697 275l-7 -3q-17 -5 -53 9l10 -41l12 14l18 11l26 10h-6zM415 80q39 -36 54 -96q4 -15 4 -31q0 -69 -46 -128q-44 -56 -109 -84q-33 -13 -120 -37l-47 -7l-97 -1q-75 14 -93 91v51q12 65 55 105q22 22 82 11q38 2 57 8q-60 40 -60 117q0 34 12 82q53 85 217 209l102 60
l79 69l87 66l153 120q75 60 287 202q71 47 118 47q37 0 72 -22q68 -41 68 -108q0 -17 -4 -34q-10 -55 -81 -94q-137 -77 -280 -187l-17 -13q84 -48 84 -157q0 -95 -50 -171t-137 -111q-36 -14 -107 -23l-99 8l-76 13q-59 19 -108 45z" />
    <glyph glyph-name="uni0798" unicode="&#x798;" horiz-adv-x="985" 
d="M451 65q18 -28 26 -99q-27 -110 -98 -166q-122 -96 -257 -96q-86 0 -123 54q-23 34 -16 104q3 31 45 74l29 16q44 2 62 6q28 6 56 24q-33 22 -63 47q-34 44 -34 94q0 82 93 172l71 56l109 77l96 56l85 41l75 26l62 7q238 0 238 -241q0 -42 -10 -78q-55 -210 -276 -210
q-93 0 -170 36zM635 283q-1 4 -9 4q-15 0 -46 -19q12 -4 26 -4q17 -1 26 4q4 9 3 15zM675 645q0 41 35 79q36 38 78 38q103 0 103 -104q0 -44 -33 -78q-33 -35 -77 -35q-106 0 -106 100zM509 769q0 42 35 82q34 39 78 39q107 0 107 -107q0 -45 -34 -80q-35 -36 -78 -36
q-108 0 -108 102zM379 582q0 43 35 81q34 37 78 37q104 0 104 -104q0 -46 -33 -80q-33 -35 -78 -35q-106 0 -106 101z" />
    <glyph glyph-name="uni0799" unicode="&#x799;" horiz-adv-x="905" 
d="M856 367q-36 -49 -188 -180q-118 -101 -245 -191q-181 -135 -268 -133q-91 7 -130 62q-19 25 -27 83l6 45l18 37l42 33q92 45 214 120q149 100 333 271l42 36q43 26 83 26q56 0 100 -41q43 -40 43 -96q0 -40 -23 -72zM479 -87q0 50 41 96q40 45 90 45q125 0 125 -126
q0 -54 -39 -94q-39 -41 -91 -41q-126 0 -126 120z" />
    <glyph glyph-name="uni079A" unicode="&#x79a;" horiz-adv-x="904" 
d="M856 367q-36 -49 -188 -180q-118 -101 -245 -191q-181 -135 -268 -133q-91 7 -130 62q-19 25 -27 83l6 45l18 37l42 33q92 45 214 120q149 100 333 271l42 36q43 26 83 26q56 0 100 -41q43 -40 43 -96q0 -40 -23 -72zM561 729q0 49 41 95q40 46 91 46q125 0 125 -126
q0 -54 -40 -94q-39 -41 -91 -41q-126 0 -126 120z" />
    <glyph glyph-name="uni079B" unicode="&#x79b;" horiz-adv-x="1171" 
d="M115 -283q-129 -8 -140 133q-3 43 19 83q21 40 61 50q134 38 322 206q-5 28 -5 48q0 98 90 140q33 16 93 17q57 -5 85 -28l18 -21q34 -19 65 -19q59 0 59 38q0 11 -16 18q-54 18 -78 34q-37 25 -40 69q-5 59 24 101q31 46 89 46q63 0 107 11l47 25l40 5q85 0 132 -66
q25 -34 25 -70q0 -49 -43 -89q22 -47 22 -101q0 -129 -104 -209q-87 -67 -224 -89q-41 -3 -76 -3q-45 0 -76 4q-242 -211 -404 -305q-45 -27 -92 -28zM686 829q0 49 41 95q40 46 91 46q125 0 125 -126q0 -54 -40 -94q-39 -41 -91 -41q-126 0 -126 120z" />
    <glyph glyph-name="uni079C" unicode="&#x79c;" horiz-adv-x="1080" 
d="M934 404l-76 -54l5 -6q57 -54 57 -123q0 -60 -50 -101q-38 -31 -61 -40q-13 -4 -70 -9q-73 -5 -165 32q-134 -105 -286 -198l-87 -53q-61 -24 -94 -24q-41 0 -88 32q-44 58 -44 109q0 91 96 141q51 18 209 115q30 18 83 57q-28 49 -28 99q0 116 124 146q73 17 164 -8
l27 18l72 54l47 28l50 31l55 21q81 11 129 -24q51 -37 51 -117q0 -48 -40 -79q-4 -3 -80 -47zM549 731q0 49 41 95q40 46 91 46q125 0 125 -126q0 -54 -40 -94q-39 -41 -91 -41q-126 0 -126 120z" />
    <glyph glyph-name="uni079D" unicode="&#x79d;" horiz-adv-x="1892" 
d="M1738 367q-23 -59 -118 -126q-144 -74 -331 -97q-208 -4 -599 18l-160 9l-83 8q-145 -190 -292 -190q-17 0 -34 3q-103 31 -103 127q0 51 12 72q14 21 57 45l19 16q-30 44 -30 84q0 42 36 109q80 98 200 114q95 0 154 -47q12 -12 35 -50l14 -23l29 -4l75 -8l112 -4
l373 -17q93 -4 154 3q70 8 142 40q41 18 117 91l40 28l39 8q110 3 147 -84q23 -53 -5 -125zM1093 623q0 41 35 79q36 38 78 38q103 0 103 -104q0 -44 -33 -78q-33 -35 -77 -35q-106 0 -106 100zM927 747q0 42 35 82q34 39 78 39q107 0 107 -107q0 -45 -34 -80
q-35 -36 -78 -36q-108 0 -108 102zM797 560q0 43 35 81q34 37 78 37q104 0 104 -104q0 -46 -33 -80q-33 -35 -78 -35q-106 0 -106 101z" />
    <glyph glyph-name="uni079E" unicode="&#x79e;" horiz-adv-x="1889" 
d="M1738 367q-23 -59 -118 -126q-144 -74 -331 -97q-208 -4 -599 18l-160 9l-83 8q-145 -190 -292 -190q-17 0 -34 3q-103 31 -103 127q0 51 12 72q14 21 57 45l19 16q-30 44 -30 84q0 42 36 109q80 98 200 114q95 0 154 -47q12 -12 35 -50l14 -23l29 -4l75 -8l112 -4
l373 -17q93 -4 154 3q70 8 142 40q41 18 117 91l40 28l39 8q110 3 147 -84q23 -53 -5 -125zM914 -23q0 50 41 96q41 45 90 45q125 0 125 -126q0 -53 -39 -94t-91 -41q-126 0 -126 120z" />
    <glyph glyph-name="uni079F" unicode="&#x79f;" horiz-adv-x="1892" 
d="M1738 367q-23 -59 -118 -126q-144 -74 -331 -97q-208 -4 -599 18l-160 9l-83 8q-145 -190 -292 -190q-17 0 -34 3q-103 31 -103 127q0 51 12 72q14 21 57 45l19 16q-30 44 -30 84q0 42 36 109q80 98 200 114q95 0 154 -47q12 -12 35 -50l14 -23l29 -4l75 -8l112 -4
l373 -17q93 -4 154 3q70 8 142 40q41 18 117 91l40 28l39 8q110 3 147 -84q23 -53 -5 -125zM921 646q0 49 41 95q40 46 91 46q125 0 125 -126q0 -54 -40 -94q-39 -41 -91 -41q-126 0 -126 120z" />
    <glyph glyph-name="uni07A0" unicode="&#x7a0;" horiz-adv-x="982" 
d="M451 65q18 -28 26 -99q-27 -110 -98 -166q-122 -96 -257 -96q-86 0 -123 54q-23 34 -16 104q3 31 45 74l29 16q44 2 62 6q28 6 56 24q-33 22 -63 47q-34 44 -34 94q0 82 93 172l71 56l109 77l96 56l85 41l75 26l62 7q238 0 238 -241q0 -42 -10 -78q-55 -210 -276 -210
q-93 0 -170 36zM635 283q-1 4 -9 4q-15 0 -46 -19q12 -4 26 -4q17 -1 26 4q4 9 3 15zM491 -118q0 50 41 96q40 45 90 45q125 0 125 -126q0 -53 -39 -94t-91 -41q-126 0 -126 120z" />
    <glyph glyph-name="uni07A1" unicode="&#x7a1;" horiz-adv-x="986" 
d="M451 65q18 -28 26 -99q-27 -110 -98 -166q-122 -96 -257 -96q-86 0 -123 54q-23 34 -16 104q3 31 45 74l29 16q44 2 62 6q28 6 56 24q-33 22 -63 47q-34 44 -34 94q0 82 93 172l71 56l109 77l96 56l85 41l75 26l62 7q238 0 238 -241q0 -42 -10 -78q-55 -210 -276 -210
q-93 0 -170 36zM635 283q-1 4 -9 4q-15 0 -46 -19q12 -4 26 -4q17 -1 26 4q4 9 3 15zM539 729q0 49 41 95q40 46 91 46q125 0 125 -126q0 -54 -40 -94q-39 -41 -91 -41q-126 0 -126 120z" />
    <glyph glyph-name="uni07A2" unicode="&#x7a2;" horiz-adv-x="972" 
d="M120 -148q-60 0 -102 42q-42 40 -37 100q7 82 60 112q107 62 157 93q81 52 148 107l80 66l199 153l54 31l44 7q109 0 140 -96q8 -26 16 -93l1 -50l-4 -59q-8 -101 -44 -207q-45 -133 -106 -185q-38 -31 -120 -27q-47 3 -96 49q-24 38 -24 70q0 19 7 34q24 38 64 126l2 7
q-219 -184 -356 -255q-47 -25 -83 -25zM279 -153q0 50 41 96q40 45 90 45q125 0 125 -126q0 -54 -39 -94q-39 -41 -91 -41q-126 0 -126 120z" />
    <glyph glyph-name="uni07A3" unicode="&#x7a3;" horiz-adv-x="974" 
d="M120 -148q-60 0 -102 42q-42 40 -37 100q7 82 60 112q107 62 157 93q81 52 148 107l80 66l199 153l54 31l44 7q109 0 140 -96q8 -26 16 -93l1 -50l-4 -59q-8 -101 -44 -207q-45 -133 -106 -185q-38 -31 -120 -27q-47 3 -96 49q-24 38 -24 70q0 19 7 34q24 38 64 126l2 7
q-219 -184 -356 -255q-47 -25 -83 -25zM541 706q0 49 41 95q40 46 91 46q125 0 125 -126q0 -54 -40 -94q-39 -41 -91 -41q-126 0 -126 120z" />
    <glyph glyph-name="uni07A4" unicode="&#x7a4;" horiz-adv-x="897" 
d="M152 185q72 -19 154 12q25 10 25 22q0 20 -15 35q-26 26 -40 83q2 50 29 92l26 29l47 34l58 37q118 54 137 60q71 26 145 33q60 -29 80 -48q33 -33 37 -85l-5 -60q-21 -43 -68 -72q-158 -44 -158 -69q1 -6 11 -21q23 -35 23 -81q0 -82 -64 -158q-60 -55 -112 -78
q-30 -13 -126 -38q-70 -19 -140 -19q-146 0 -197 78q-12 34 -12 70q0 62 31 103q35 47 93 47q20 0 41 -6zM612 733q0 49 42 96t92 47q127 0 127 -127q0 -52 -41 -93t-93 -41q-127 0 -127 118zM346 725q0 53 43 97q43 45 94 45q127 0 127 -126q0 -55 -40 -96q-40 -42 -93 -42
q-131 0 -131 122z" />
    <glyph glyph-name="uni07A5" unicode="&#x7a5;" horiz-adv-x="912" 
d="M541 310q-23 2 -44 -8l-9 -13q-2 -6 -2 -7q0 -4 8 -6q33 7 47 34zM239 124l-3 2q-44 40 -54 75q-8 29 -7 88l13 51l23 42l31 41l61 56q82 54 197 88q56 6 96 6q176 0 236 -123q19 -37 17 -110q-13 -78 -73 -138q-65 -78 -197 -182q-39 -30 -132 -94l-72 -50l-122 -73
l-48 -25q-52 -20 -90 -20q-87 0 -132 109q-6 72 28 121l31 25l55 20q71 36 142 91zM492 728q0 49 41 95q40 46 91 46q125 0 125 -126q0 -54 -40 -94q-39 -41 -91 -41q-126 0 -126 120z" />
    <glyph glyph-name="uni07A6nsp" unicode="&#x7a6;" horiz-adv-x="50" 
d="M895 1429q-6 -34 -56 -86l-46 -38q-52 -45 -176 -134l-155 -98l-51 -28q-50 -22 -95 -22q-98 0 -131 102q-3 18 -3 32q0 98 131 146q114 41 326 225q73 63 124 63q58 0 96 -39t38 -97q0 -10 -2 -26z" />
    <glyph glyph-name="uni07A7nsp" unicode="&#x7a7;" horiz-adv-x="99" 
d="M715 1494q-322 -252 -435 -253q-112 -1 -145 102q-4 17 -4 35q0 91 128 144q41 16 165 87q73 59 174 122q15 4 34 4q58 0 95 -40q39 -39 39 -96q0 -53 -51 -105zM964 1380q-6 -37 -56 -87l-46 -37q-167 -133 -264 -185l-51 -27q-44 -23 -96 -23q-99 0 -130 102
q-4 12 -4 34q0 86 116 140q136 63 275 182q74 63 125 63q57 0 94 -40q39 -39 39 -95q0 -9 -2 -27z" />
    <glyph glyph-name="uni07A8nsp" unicode="&#x7a8;" 
d="M611 -519l-46 -37q-103 -84 -231 -165l-75 -48l-51 -26q-49 -25 -95 -25q-100 0 -131 103q-4 17 -4 35q0 95 130 143q74 28 191 114l101 85q70 58 102 65q15 4 31 4q58 0 96.5 -38t38.5 -96q0 -55 -57 -114z" />
    <glyph glyph-name="uni07A9nsp" unicode="&#x7a9;" 
d="M596 -518q-51 -45 -197 -152l-155 -98q-81 -37 -124 -37q-77 0 -114 76q-13 26 -13 60q0 76 71 117q52 22 109 54q12 7 113 74q40 33 100 84q69 58 102 66q22 5 33 5q58 0 95 -40q39 -41 39 -98q0 -61 -59 -111zM722 -780l-46 -38q-283 -234 -419 -235q-110 -1 -136 103
q-4 15 -4 33q0 88 107 127q125 46 298 195q73 64 125 64q55 0 94 -39q39 -40 39 -96t-58 -114z" />
    <glyph glyph-name="uni07AAnsp" unicode="&#x7aa;" 
d="M482 1360q-26 -1 -79 -9l-47 5q-86 20 -86 110q0 74 68 121q25 18 125 32l95 1q94 -9 119 -16q152 -36 152 -151q0 -86 -52 -145l-65 -75l-67 -57l-58 -44q-142 -107 -260 -107q-139 0 -145 137q1 29 35 78q44 34 66 38q16 3 72 17q64 18 127 65z" />
    <glyph glyph-name="uni07ABnsp" unicode="&#x7ab;" 
d="M777 1373q-18 -1 -51 -9l-47 3q-87 21 -87 111q0 119 150 152l96 2q80 -6 122 -14q148 -33 148 -158q0 -69 -65 -166l-66 -72l-64 -58l-59 -43q-134 -97 -225 -102q-133 -7 -153 132q9 66 37 100q33 27 145 56q47 23 119 66zM305 1372h1q-14 -1 -54 -8l-47 3
q-96 23 -85 131q4 59 67 102q27 18 95 30q186 4 249 -20q118 -46 118 -145q0 -75 -66 -171l-66 -72l-64 -58l-58 -43q-116 -86 -185 -99q-57 -10 -109 33q-34 28 -39 109q4 50 33 93q30 20 58 27q47 14 58 15q13 9 94 73z" />
    <glyph glyph-name="uni07ACnsp" unicode="&#x7ac;" horiz-adv-x="0" 
d="M600 1022q-42 -2 -61 -2q-141 0 -221 55q-32 22 -66 71q-19 54 -19 92q0 130 207 300q75 44 93 53q52 26 101 35q153 -2 153 -128q0 -58 -86 -117q-49 -16 -124 -70q-27 -20 -32 -33q2 -2 12 2l90 12q38 5 51 5q62 0 89 -63q9 -21 9 -49q0 -148 -196 -163z" />
    <glyph glyph-name="uni07ADnsp" unicode="&#x7ad;" horiz-adv-x="50" 
d="M1004 1380q-33 -16 -114 -70q-30 -26 -30 -33q2 -3 12 1l80 13q25 4 43 4q41 0 67 -36q23 -34 23 -75q0 -128 -114 -151l-54 -9q-7 0 -32 -2t-33 -2q-141 0 -218 53q-30 21 -65 71q-19 54 -19 93q0 83 75 170q37 43 141 129l81 51q45 26 87 38q155 -2 155 -128
q0 -60 -85 -117zM417 1286h50q17 3 33 3q107 0 107 -112q0 -92 -68 -127q-36 -18 -156 -20q-185 -2 -263 112q-19 54 -19 93q0 63 27 110l65 90q45 40 124 99l73 45q52 32 111 44q154 -1 154 -129q0 -59 -86 -118q-100 -33 -152 -90z" />
    <glyph glyph-name="uni07AEnsp" unicode="&#x7ae;" horiz-adv-x="149" 
d="M720 1284q12 -5 19 -5l62 3q109 0 115 -87q10 -157 -131 -162l-90 -3q-84 12 -118 27q-48 20 -89 77l-5 12q-142 -128 -259 -128q-110 0 -127 113q-2 18 -2 29q0 82 69 122q108 22 186 75q-22 -1 -77 2q-93 15 -93 114q0 134 178 147q180 -6 230 -107q67 70 187 111
l45 10q64 6 104.5 -26.5t40.5 -94.5q0 -89 -78 -121q-93 -37 -150 -83q-14 -17 -17 -25z" />
    <glyph glyph-name="uni07AFnsp" unicode="&#x7af;" 
d="M427 1277q28 12 124 31q111 -27 111 -138q0 -86 -80 -127q-33 -17 -95 -35l-66 -13h-51q-6 -1 -12 -1q-80 0 -141 51q-59 50 -79 129q-7 28 -7 73q0 83 29 165l37 64q35 60 134 165l42 44q74 57 113 81q63 40 125 57l71 19q232 28 280 -152q13 -48 13 -96q0 -84 -51 -169
q-77 -129 -200 -129q-17 0 -41 3q-47 27 -61 47q-16 22 -21 71q3 42 44 88q41 47 41 53t-6 5q-57 -9 -196 -154l-46 -79l-11 -35q-1 -13 0 -18z" />
    <glyph glyph-name="uni07B0nsp" unicode="&#x7b0;" 
d="M767 1166q-117 -146 -302 -140q-75 -6 -144 48q-95 75 -95 197q0 149 117 260q105 99 266 100q113 1 177 -62t64 -176q0 -123 -83 -227zM576 1349q-2 17 -28 17q-6 -1 -26 -12q-23 -25 -23 -45q0 -17 30 -12q50 8 47 52z" />
    <glyph glyph-name="uni07B1" unicode="&#x7b1;" horiz-adv-x="903" 
 />
    <glyph glyph-name="endash" unicode="&#x2013;" horiz-adv-x="1126" 
d="M956 402v-66l-3 -30l-26 -2l-739 2l-4 30v66l4 29l25 3h739z" />
    <glyph glyph-name="emdash" unicode="&#x2014;" horiz-adv-x="1701" 
d="M1412 84v-73l-3 -17q-3 -6 -9 -8l-22 -2h-1343q-12 0 -24 2l-4 1l-5 6l-1 18v73q0 21 10 28l24 2l1367 -2q7 -4 10 -28z" />
    <glyph glyph-name="quoteleft" unicode="&#x2018;" horiz-adv-x="416" 
d="M331 921l11 2h10q46 0 72 -26q17 -20 17 -56v-15q-10 -66 -50 -109q-42 -42 -101 -42q-53 0 -79 29q-16 22 -16 62v16q3 10 3 17q9 64 43 128l39 60q24 36 48 56q46 43 102 75q58 33 90 33q7 0 16 -17l7 -27q-3 -17 -31 -24t-48 -18q-94 -43 -133 -144z" />
    <glyph glyph-name="quoteright" unicode="&#x2019;" horiz-adv-x="416" 
d="M372 904h-10l-10 -1q-44 0 -66 21t-22 58q2 14 2 15q9 73 48.5 113.5t100.5 40.5q55 0 78 -30q16 -22 16 -62v-16q-3 -11 -3 -17q-9 -63 -42 -126q-29 -63 -86 -118q-18 -21 -45 -40l-58 -36q-58 -31 -90 -31q-8 0 -17 13l-6 32q2 12 31 20q32 10 48 19q47 21 84 60
l21 28q14 23 26 57z" />
    <glyph glyph-name="quotedblleft" unicode="&#x201c;" horiz-adv-x="774" 
d="M331 921l11 2h10q46 0 72 -26q17 -20 17 -56v-15q-10 -66 -50 -109q-42 -42 -101 -42q-53 0 -79 29q-16 22 -16 62v16q3 10 3 17q9 64 43 128l39 60q24 36 48 56q46 43 102 75q58 33 90 33q7 0 16 -17l7 -27q-3 -17 -31 -24t-48 -18q-94 -43 -133 -144zM690 921l11 2h12
q40 0 69 -26q17 -20 17 -56v-15q-10 -66 -50 -109q-42 -42 -99 -42q-55 0 -79 29q-16 22 -16 62v16q3 11 3 17q7 64 41 128q29 60 85 115q44 44 105 76q58 33 91 33q9 -3 15 -16q6 -19 5 -28q-1 -14 -30 -25q-23 -5 -48 -17q-102 -49 -132 -144z" />
    <glyph glyph-name="quotedblright" unicode="&#x201d;" horiz-adv-x="774" 
d="M372 904h-10l-10 -1q-44 0 -66 21t-22 58q2 14 2 15q9 73 48.5 113.5t100.5 40.5q55 0 78 -30q16 -22 16 -62v-16q-3 -11 -3 -17q-9 -63 -42 -126q-29 -63 -86 -118q-18 -21 -45 -40l-58 -36q-58 -31 -90 -31q-8 0 -17 13l-6 32q2 12 31 20q32 10 48 19q47 21 84 60
l21 28q14 23 26 57zM732 904h-11l-11 -1q-45 0 -69 25q-19 20 -19 54q2 14 2 15q7 72 49 114q37 40 99 40q56 0 77 -31q18 -22 18 -61v-16q-3 -11 -3 -17q-9 -63 -42 -126q-29 -63 -86 -118q-35 -37 -101 -73q-64 -34 -90 -34q-7 0 -19 13q-6 12 -6 32q2 13 30 20l48 19
q49 22 85 60q31 35 49 85z" />
    <glyph glyph-name="bullet" unicode="&#x2022;" horiz-adv-x="950" 
d="M769 637q0 -103 -73 -176q-72 -72 -175 -72t-175 72q-72 73 -72 176t72 175t175 72t175 -72q73 -72 73 -175z" />
    <glyph glyph-name="uni25CC" unicode="&#x25cc;" horiz-adv-x="1229" 
d="M614 1028q-12 0 -21 9.5t-9 21.5t9 21.5t21 9.5q13 0 22 -9.5t9 -21.5t-9 -21.5t-22 -9.5zM430 987q-12 0 -21.5 9.5t-9.5 21.5t9.5 21.5t21.5 9.5t21.5 -9.5t9.5 -21.5t-9.5 -21.5t-21.5 -9.5zM805 983q-12 0 -21.5 9.5t-9.5 21.5t9.5 21t21.5 9t21.5 -9t9.5 -21
q0 -13 -9.5 -22t-21.5 -9zM289 887q-12 0 -21.5 9t-9.5 22q0 12 9 21t22 9q12 0 21 -9t9 -21q0 -13 -9 -22t-21 -9zM961 870q-13 0 -22 9.5t-9 21.5t9 21.5t22 9.5q12 0 21 -9.5t9 -21.5t-9 -21.5t-21 -9.5zM188 741q-12 0 -21 9.5t-9 21.5t9 21.5t21 9.5q13 0 22 -9.5
t9 -21.5t-9 -21.5t-22 -9.5zM1051 721q-13 0 -22 9t-9 22q0 12 9 21t22 9q12 0 21 -9t9 -21q0 -13 -9 -22t-21 -9zM1075 563q-12 0 -21.5 9.5t-9.5 21.5t9.5 21.5t21.5 9.5t21.5 -9.5t9.5 -21.5t-9.5 -21.5t-21.5 -9.5zM150 563q-13 0 -22 9.5t-9 21.5t9 21.5t22 9.5
q12 0 21 -9.5t9 -21.5t-9 -21.5t-21 -9.5zM1040 383q-12 0 -21 9t-9 22q0 12 9 21t21 9q13 0 22 -9t9 -21q0 -13 -9 -22t-22 -9zM197 367q-13 0 -22 9t-9 21q0 13 9 22t22 9q12 0 21 -9t9 -22q0 -12 -9 -21t-21 -9zM942 238q-12 0 -21.5 9t-9.5 21q0 13 9.5 22t21.5 9
t21.5 -9t9.5 -22q0 -12 -9.5 -21t-21.5 -9zM305 219q-12 0 -21.5 9.5t-9.5 21.5t9.5 21.5t21.5 9.5t21.5 -9.5t9.5 -21.5t-9.5 -21.5t-21.5 -9.5zM799 137q-12 0 -21.5 9.5t-9.5 21.5t9 21.5t22 9.5q12 0 21 -9.5t9 -21.5t-9 -21.5t-21 -9.5zM451 129q-13 0 -22 9.5t-9 21.5
t9 21t22 9q12 0 21 -9t9 -21t-9 -21.5t-21 -9.5zM614 100q-12 0 -21 9.5t-9 21.5t9 21.5t21 9.5q13 0 22 -9.5t9 -21.5t-9 -21.5t-22 -9.5z" />
    <glyph glyph-name="NULL" horiz-adv-x="0" 
 />
    <glyph glyph-name="CR" horiz-adv-x="1024" 
 />
    <glyph glyph-name="uni07A6" 
d="M895 1429q-6 -34 -56 -86l-46 -38q-52 -45 -176 -134l-155 -98l-51 -28q-50 -22 -95 -22q-98 0 -131 102q-3 18 -3 32q0 98 131 146q114 41 326 225q73 63 124 63q58 0 96 -39t38 -97q0 -10 -2 -26z" />
    <glyph glyph-name="uni07A7" horiz-adv-x="100" 
d="M715 1494q-322 -252 -435 -253q-112 -1 -145 102q-4 17 -4 35q0 91 128 144q41 16 165 87q73 59 174 122q15 4 34 4q58 0 95 -40q39 -39 39 -96q0 -53 -51 -105zM964 1380q-6 -37 -56 -87l-46 -37q-167 -133 -264 -185l-51 -27q-44 -23 -96 -23q-99 0 -130 102
q-4 12 -4 34q0 86 116 140q136 63 275 182q74 63 125 63q57 0 94 -40q39 -39 39 -95q0 -9 -2 -27z" />
    <glyph glyph-name="uni07A8" 
d="M611 -519l-46 -37q-103 -84 -231 -165l-75 -48l-51 -26q-49 -25 -95 -25q-100 0 -131 103q-4 17 -4 35q0 95 130 143q74 28 191 114l101 85q70 58 102 65q15 4 31 4q58 0 96.5 -38t38.5 -96q0 -55 -57 -114z" />
    <glyph glyph-name="uni07A9" horiz-adv-x="47" 
d="M596 -518q-51 -45 -197 -152l-155 -98q-81 -37 -124 -37q-77 0 -114 76q-13 26 -13 60q0 76 71 117q52 22 109 54q12 7 113 74q40 33 100 84q69 58 102 66q22 5 33 5q58 0 95 -40q39 -41 39 -98q0 -61 -59 -111zM722 -780l-46 -38q-283 -234 -419 -235q-110 -1 -136 103
q-4 15 -4 33q0 88 107 127q125 46 298 195q73 64 125 64q55 0 94 -39q39 -40 39 -96t-58 -114z" />
    <glyph glyph-name="uni07AA" 
d="M482 1360q-26 -1 -79 -9l-47 5q-86 20 -86 110q0 74 68 121q25 18 125 32l95 1q94 -9 119 -16q152 -36 152 -151q0 -86 -52 -145l-65 -75l-67 -57l-58 -44q-142 -107 -260 -107q-139 0 -145 137q1 29 35 78q44 34 66 38q16 3 72 17q64 18 127 65z" />
    <glyph glyph-name="uni07AB" horiz-adv-x="149" 
d="M777 1373q-18 -1 -51 -9l-47 3q-87 21 -87 111q0 119 150 152l96 2q80 -6 122 -14q148 -33 148 -158q0 -69 -65 -166l-66 -72l-64 -58l-59 -43q-134 -97 -225 -102q-133 -7 -153 132q9 66 37 100q33 27 145 56q47 23 119 66zM305 1372h1q-14 -1 -54 -8l-47 3
q-96 23 -85 131q4 59 67 102q27 18 95 30q186 4 249 -20q118 -46 118 -145q0 -75 -66 -171l-66 -72l-64 -58l-58 -43q-116 -86 -185 -99q-57 -10 -109 33q-34 28 -39 109q4 50 33 93q30 20 58 27q47 14 58 15q13 9 94 73z" />
    <glyph glyph-name="uni07AC" 
d="M600 1022q-42 -2 -61 -2q-141 0 -221 55q-32 22 -66 71q-19 54 -19 92q0 130 207 300q75 44 93 53q52 26 101 35q153 -2 153 -128q0 -58 -86 -117q-49 -16 -124 -70q-27 -20 -32 -33q2 -2 12 2l90 12q38 5 51 5q62 0 89 -63q9 -21 9 -49q0 -148 -196 -163z" />
    <glyph glyph-name="uni07AD" horiz-adv-x="149" 
d="M1004 1380q-33 -16 -114 -70q-30 -26 -30 -33q2 -3 12 1l80 13q25 4 43 4q41 0 67 -36q23 -34 23 -75q0 -128 -114 -151l-54 -9q-7 0 -32 -2t-33 -2q-141 0 -218 53q-30 21 -65 71q-19 54 -19 93q0 83 75 170q37 43 141 129l81 51q45 26 87 38q155 -2 155 -128
q0 -60 -85 -117zM417 1286h50q17 3 33 3q107 0 107 -112q0 -92 -68 -127q-36 -18 -156 -20q-185 -2 -263 112q-19 54 -19 93q0 63 27 110l65 90q45 40 124 99l73 45q52 32 111 44q154 -1 154 -129q0 -59 -86 -118q-100 -33 -152 -90z" />
    <glyph glyph-name="uni07AE" horiz-adv-x="150" 
d="M720 1284q12 -5 19 -5l62 3q109 0 115 -87q10 -157 -131 -162l-90 -3q-84 12 -118 27q-48 20 -89 77l-5 12q-142 -128 -259 -128q-110 0 -127 113q-2 18 -2 29q0 82 69 122q108 22 186 75q-22 -1 -77 2q-93 15 -93 114q0 134 178 147q180 -6 230 -107q67 70 187 111
l45 10q64 6 104.5 -26.5t40.5 -94.5q0 -89 -78 -121q-93 -37 -150 -83q-14 -17 -17 -25z" />
    <glyph glyph-name="uni07AF" horiz-adv-x="100" 
d="M427 1277q28 12 124 31q111 -27 111 -138q0 -86 -80 -127q-33 -17 -95 -35l-66 -13h-51q-6 -1 -12 -1q-80 0 -141 51q-59 50 -79 129q-7 28 -7 73q0 83 29 165l37 64q35 60 134 165l42 44q74 57 113 81q63 40 125 57l71 19q232 28 280 -152q13 -48 13 -96q0 -84 -51 -169
q-77 -129 -200 -129q-17 0 -41 3q-47 27 -61 47q-16 22 -21 71q3 42 44 88q41 47 41 53t-6 5q-57 -9 -196 -154l-46 -79l-11 -35q-1 -13 0 -18z" />
    <glyph glyph-name="uni07B0" horiz-adv-x="51" 
d="M767 1166q-117 -146 -302 -140q-75 -6 -144 48q-95 75 -95 197q0 149 117 260q105 99 266 100q113 1 177 -62t64 -176q0 -123 -83 -227zM576 1349q-2 17 -28 17q-6 -1 -26 -12q-23 -25 -23 -45q0 -17 30 -12q50 8 47 52z" />
    <glyph glyph-name="DotAbove" horiz-adv-x="637" 
d="M238 176q0 49 41 95q40 46 91 46q125 0 125 -126q0 -54 -40 -94q-39 -41 -91 -41q-126 0 -126 120z" />
    <glyph glyph-name="DotBelow" horiz-adv-x="682" 
d="M238 189q0 50 41 96q41 45 90 45q125 0 125 -126q0 -54 -39 -94q-39 -41 -91 -41q-126 0 -126 120z" />
    <glyph glyph-name="TwoDots" horiz-adv-x="731" 
d="M389 190q0 50 42 96q42 47 92 47q127 0 127 -127q0 -52 -41 -93t-93 -41q-127 0 -127 118zM123 182q0 53 43 97q44 45 94 45q127 0 127 -126q0 -55 -40 -96q-41 -42 -93 -42q-131 0 -131 122z" />
    <glyph glyph-name="ThreeDots" horiz-adv-x="728" 
d="M375 195q0 41 35 79q36 38 78 38q103 0 103 -104q0 -44 -33 -78q-33 -35 -77 -35q-106 0 -106 100zM209 319q0 42 35 82q34 39 78 39q107 0 107 -107q0 -45 -34 -80q-35 -36 -78 -36q-108 0 -108 102zM79 132q0 43 35 81q34 37 78 37q104 0 104 -104q0 -46 -33 -80
q-33 -35 -78 -35q-106 0 -106 101z" />
  </font>
</defs>
</svg>
